<?xml version="1.0" encoding="utf-8"?>
<!-- Generator: Adobe Illustrator 26.2.1, SVG Export Plug-In . SVG Version: 6.00 Build 0)  -->
<svg version="1.1" id="Layer_1" xmlns="http://www.w3.org/2000/svg" xmlns:xlink="http://www.w3.org/1999/xlink" x="0px" y="0px"
	 viewBox="0 0 1280 1024" style="enable-background:new 0 0 1280 1024;" xml:space="preserve">
<style type="text/css">
	.st0{fill:#FFDA00;}
	.st1{fill:#FFC500;}
	.st2{fill:none;stroke:#3A0078;stroke-width:1.5533;stroke-miterlimit:10;}
</style>
<g>
	<g>
		<g id="XMLID_00000160913135738010960740000001601637813508881827_">
			<g>
				<polygon class="st0" points="529.97,439.4 598.41,480.17 645.09,424.49 600.63,409.52 				"/>
				<polygon class="st0" points="645.09,424.49 598.41,480.17 717.75,522.55 715,448.07 				"/>
				<polygon class="st0" points="715,448.07 717.75,522.55 795.12,530.94 758.32,462.64 				"/>
				<polygon class="st1" points="529.97,439.4 602.84,654.52 598.41,480.17 				"/>
				<polygon class="st1" points="598.41,480.17 602.84,654.52 717.75,522.55 				"/>
				<polygon class="st1" points="717.75,522.55 602.84,654.52 795.12,530.94 				"/>
			</g>
			<g>
				<polygon class="st2" points="715,448.07 758.32,462.64 795.12,530.94 602.84,654.52 529.97,439.4 600.63,409.52 645.09,424.49 
									"/>
				<polyline class="st2" points="715,448 715,448.07 717.75,522.55 602.84,654.52 				"/>
				<polyline class="st2" points="645.09,424.49 598.41,480.17 602.84,654.52 				"/>
				<polyline class="st2" points="529.97,439.4 598.41,480.17 717.75,522.55 795.12,530.94 				"/>
			</g>
		</g>
	</g>
	<path class="st2" d="M671.28,458.96c-5.97,7.17-11.93,14.33-17.89,21.5"/>
	<path class="st2" d="M657.22,451.27c-6.62,4.69-12.62,10.25-17.82,16.48"/>
</g>
</svg>
