<?xml version="1.0" encoding="utf-8"?>
<!-- Generator: Adobe Illustrator 26.2.1, SVG Export Plug-In . SVG Version: 6.00 Build 0)  -->
<svg version="1.1" id="Layer_1" xmlns="http://www.w3.org/2000/svg" xmlns:xlink="http://www.w3.org/1999/xlink" x="0px" y="0px"
	 viewBox="0 0 1280 1024" style="enable-background:new 0 0 1280 1024;" xml:space="preserve">
<style type="text/css">
	.st0{fill:#000083;stroke:#FEFDFF;stroke-width:0.8708;stroke-miterlimit:10;}
	.st1{fill:#000083;}
	.st2{fill-rule:evenodd;clip-rule:evenodd;fill:#000083;stroke:#FEFDFF;stroke-width:0.8708;stroke-miterlimit:10;}
</style>
<g>
	<g>
		<g>
			<path class="st0" d="M522.96,467.37c0,6.71-1.99,12.05-5.97,16.03c-4.47,4.74-10.35,7.11-17.64,7.11
				c-6.98,0-12.88-2.41-17.71-7.24c-4.83-4.83-7.24-10.77-7.24-17.84c0-7.06,2.41-13.01,7.24-17.84c4.83-4.83,10.73-7.24,17.71-7.24
				c3.53,0,6.86,0.63,9.99,1.88c3.13,1.25,5.7,3.02,7.71,5.3l-4.43,4.43c-1.48-1.79-3.39-3.19-5.73-4.19
				c-2.35-1.01-4.86-1.51-7.55-1.51c-5.23,0-9.66,1.81-13.28,5.43c-3.58,3.67-5.37,8.25-5.37,13.75c0,5.5,1.79,10.08,5.37,13.75
				c3.62,3.62,8.05,5.43,13.28,5.43c4.78,0,8.76-1.34,11.94-4.02c3.17-2.68,5.01-6.37,5.5-11.07h-17.44v-5.77h23.27
				C522.85,465,522.96,466.21,522.96,467.37z"/>
			<path class="st0" d="M530.48,489.44v-48.02h14.69c7.33,0,13.22,2.21,17.67,6.64c4.45,4.43,6.67,10.22,6.67,17.37
				c0,7.2-2.22,13-6.67,17.4c-4.45,4.4-10.34,6.61-17.67,6.61H530.48z M536.65,447.32v36.22h8.52c5.59,0,9.99-1.6,13.21-4.8
				c3.22-3.2,4.83-7.63,4.83-13.31c0-5.63-1.61-10.06-4.83-13.28c-3.22-3.22-7.62-4.83-13.21-4.83H536.65z"/>
			<path class="st0" d="M623.03,467.37c0,6.71-1.99,12.05-5.97,16.03c-4.47,4.74-10.35,7.11-17.64,7.11
				c-6.98,0-12.88-2.41-17.71-7.24c-4.83-4.83-7.24-10.77-7.24-17.84c0-7.06,2.41-13.01,7.24-17.84c4.83-4.83,10.73-7.24,17.71-7.24
				c3.53,0,6.86,0.63,9.99,1.88c3.13,1.25,5.7,3.02,7.71,5.3l-4.43,4.43c-1.48-1.79-3.39-3.19-5.73-4.19
				c-2.35-1.01-4.86-1.51-7.55-1.51c-5.23,0-9.66,1.81-13.28,5.43c-3.58,3.67-5.37,8.25-5.37,13.75c0,5.5,1.79,10.08,5.37,13.75
				c3.62,3.62,8.05,5.43,13.28,5.43c4.78,0,8.76-1.34,11.94-4.02c3.17-2.68,5.01-6.37,5.5-11.07h-17.44v-5.77h23.27
				C622.92,465,623.03,466.21,623.03,467.37z"/>
			<path class="st0" d="M646.1,489.44h-6.84l18.11-48.02h6.98l18.11,48.02h-6.84l-4.63-13.01H650.8L646.1,489.44z M660.72,448.99
				l-7.85,21.66h15.96l-7.85-21.66H660.72z"/>
			<path class="st0" d="M693.19,441.41v48.02h-6.17v-48.02H693.19z"/>
			<path class="st0" d="M714.92,505c-1.83,0-3.55-0.24-5.16-0.7c-1.61-0.47-3.08-1.13-4.39-1.98c-1.32-0.85-2.45-1.86-3.39-3.02
				c-0.94-1.16-1.65-2.46-2.15-3.89l5.84-2.41c0.67,1.92,1.83,3.46,3.49,4.63c1.65,1.16,3.58,1.74,5.77,1.74
				c3.35,0,5.97-1.01,7.85-3.02c1.88-2.01,2.82-4.78,2.82-8.32v-3.15h-0.27c-1.16,1.74-2.74,3.12-4.73,4.13
				c-1.99,1.01-4.15,1.51-6.47,1.51c-4.29,0-7.98-1.68-11.07-5.03c-3.04-3.44-4.56-7.6-4.56-12.48c0-4.87,1.52-9.01,4.56-12.41
				c3.09-3.4,6.77-5.1,11.07-5.1c2.32,0,4.48,0.5,6.47,1.51c1.99,1.01,3.57,2.38,4.73,4.13h0.27v-4.56h5.9v31.46
				c0,5.28-1.5,9.41-4.49,12.41C723.95,503.48,719.92,505,714.92,505z M715.12,484.88c3.04,0,5.52-1.09,7.44-3.29
				c2.01-2.19,3.02-5.05,3.02-8.59c0-3.44-1.01-6.28-3.02-8.52c-1.97-2.24-4.45-3.35-7.44-3.35c-2.95,0-5.43,1.12-7.44,3.35
				c-2.01,2.24-3.02,5.08-3.02,8.52c0,3.49,1.01,6.33,3.02,8.52C709.69,483.76,712.17,484.88,715.12,484.88z"/>
			<path class="st0" d="M746.98,445.24c0,1.21-0.43,2.24-1.27,3.09c-0.85,0.85-1.88,1.27-3.09,1.27s-2.24-0.42-3.09-1.27
				c-0.85-0.85-1.27-1.88-1.27-3.09c0-1.21,0.42-2.24,1.27-3.08c0.85-0.85,1.88-1.27,3.09-1.27s2.24,0.43,3.09,1.27
				C746.55,443,746.98,444.03,746.98,445.24z M745.7,456.57v32.86h-6.17v-32.86H745.7z"/>
			<path class="st0" d="M768.17,490.51c-4.83,0-8.81-1.65-11.94-4.96c-3.13-3.31-4.69-7.49-4.69-12.54c0-5.01,1.52-9.18,4.56-12.51
				c3.04-3.33,6.93-5,11.67-5c4.87,0,8.75,1.58,11.64,4.73c2.88,3.15,4.33,7.57,4.33,13.25l-0.07,0.67h-25.82
				c0.09,3.22,1.16,5.81,3.22,7.78c2.06,1.97,4.52,2.95,7.38,2.95c3.93,0,7.02-1.97,9.26-5.9l5.5,2.68
				c-1.48,2.77-3.52,4.94-6.14,6.51C774.44,489.73,771.48,490.51,768.17,490.51z M758.31,469.05h18.85
				c-0.18-2.28-1.11-4.17-2.78-5.67c-1.68-1.5-3.92-2.25-6.74-2.25c-2.33,0-4.33,0.72-6,2.15
				C759.95,464.71,758.85,466.63,758.31,469.05z"/>
			<path class="st0" d="M795.53,489.44h-6.17v-32.86h5.9v5.37h0.27c0.63-1.74,1.91-3.23,3.86-4.46c1.95-1.23,3.86-1.84,5.73-1.84
				c1.79,0,3.31,0.27,4.56,0.8l-1.88,5.97c-0.76-0.31-1.97-0.47-3.62-0.47c-2.33,0-4.35,0.94-6.07,2.82
				c-1.72,1.88-2.58,4.07-2.58,6.57V489.44z"/>
			<path class="st0" d="M837.52,480.31c0,2.86-1.25,5.28-3.76,7.24c-2.5,1.97-5.66,2.95-9.46,2.95c-3.31,0-6.22-0.86-8.72-2.58
				c-2.5-1.72-4.29-3.99-5.37-6.81l5.5-2.35c0.8,1.97,1.98,3.5,3.52,4.59c1.54,1.1,3.23,1.64,5.06,1.64c1.97,0,3.61-0.42,4.93-1.27
				c1.32-0.85,1.98-1.85,1.98-3.02c0-2.1-1.61-3.64-4.83-4.63l-5.63-1.41c-6.39-1.61-9.59-4.69-9.59-9.26c0-2.99,1.22-5.4,3.65-7.21
				c2.44-1.81,5.56-2.72,9.36-2.72c2.91,0,5.53,0.69,7.88,2.08c2.35,1.39,3.99,3.24,4.93,5.57l-5.5,2.28
				c-0.63-1.39-1.64-2.47-3.05-3.25c-1.41-0.78-2.98-1.17-4.73-1.17c-1.61,0-3.05,0.4-4.33,1.21c-1.27,0.81-1.91,1.79-1.91,2.95
				c0,1.88,1.77,3.22,5.3,4.02l4.96,1.27C834.26,472.06,837.52,475.35,837.52,480.31z"/>
		</g>
		<g>
			<path class="st1" d="M522.96,467.37c0,6.71-1.99,12.05-5.97,16.03c-4.47,4.74-10.35,7.11-17.64,7.11
				c-6.98,0-12.88-2.41-17.71-7.24c-4.83-4.83-7.24-10.77-7.24-17.84c0-7.06,2.41-13.01,7.24-17.84c4.83-4.83,10.73-7.24,17.71-7.24
				c3.53,0,6.86,0.63,9.99,1.88c3.13,1.25,5.7,3.02,7.71,5.3l-4.43,4.43c-1.48-1.79-3.39-3.19-5.73-4.19
				c-2.35-1.01-4.86-1.51-7.55-1.51c-5.23,0-9.66,1.81-13.28,5.43c-3.58,3.67-5.37,8.25-5.37,13.75c0,5.5,1.79,10.08,5.37,13.75
				c3.62,3.62,8.05,5.43,13.28,5.43c4.78,0,8.76-1.34,11.94-4.02c3.17-2.68,5.01-6.37,5.5-11.07h-17.44v-5.77h23.27
				C522.85,465,522.96,466.21,522.96,467.37z"/>
			<path class="st1" d="M530.48,489.44v-48.02h14.69c7.33,0,13.22,2.21,17.67,6.64c4.45,4.43,6.67,10.22,6.67,17.37
				c0,7.2-2.22,13-6.67,17.4c-4.45,4.4-10.34,6.61-17.67,6.61H530.48z M536.65,447.32v36.22h8.52c5.59,0,9.99-1.6,13.21-4.8
				c3.22-3.2,4.83-7.63,4.83-13.31c0-5.63-1.61-10.06-4.83-13.28c-3.22-3.22-7.62-4.83-13.21-4.83H536.65z"/>
			<path class="st1" d="M623.03,467.37c0,6.71-1.99,12.05-5.97,16.03c-4.47,4.74-10.35,7.11-17.64,7.11
				c-6.98,0-12.88-2.41-17.71-7.24c-4.83-4.83-7.24-10.77-7.24-17.84c0-7.06,2.41-13.01,7.24-17.84c4.83-4.83,10.73-7.24,17.71-7.24
				c3.53,0,6.86,0.63,9.99,1.88c3.13,1.25,5.7,3.02,7.71,5.3l-4.43,4.43c-1.48-1.79-3.39-3.19-5.73-4.19
				c-2.35-1.01-4.86-1.51-7.55-1.51c-5.23,0-9.66,1.81-13.28,5.43c-3.58,3.67-5.37,8.25-5.37,13.75c0,5.5,1.79,10.08,5.37,13.75
				c3.62,3.62,8.05,5.43,13.28,5.43c4.78,0,8.76-1.34,11.94-4.02c3.17-2.68,5.01-6.37,5.5-11.07h-17.44v-5.77h23.27
				C622.92,465,623.03,466.21,623.03,467.37z"/>
			<path class="st1" d="M646.1,489.44h-6.84l18.11-48.02h6.98l18.11,48.02h-6.84l-4.63-13.01H650.8L646.1,489.44z M660.72,448.99
				l-7.85,21.66h15.96l-7.85-21.66H660.72z"/>
			<path class="st1" d="M693.19,441.41v48.02h-6.17v-48.02H693.19z"/>
			<path class="st1" d="M714.92,505c-1.83,0-3.55-0.24-5.16-0.7c-1.61-0.47-3.08-1.13-4.39-1.98c-1.32-0.85-2.45-1.86-3.39-3.02
				c-0.94-1.16-1.65-2.46-2.15-3.89l5.84-2.41c0.67,1.92,1.83,3.46,3.49,4.63c1.65,1.16,3.58,1.74,5.77,1.74
				c3.35,0,5.97-1.01,7.85-3.02c1.88-2.01,2.82-4.78,2.82-8.32v-3.15h-0.27c-1.16,1.74-2.74,3.12-4.73,4.13
				c-1.99,1.01-4.15,1.51-6.47,1.51c-4.29,0-7.98-1.68-11.07-5.03c-3.04-3.44-4.56-7.6-4.56-12.48c0-4.87,1.52-9.01,4.56-12.41
				c3.09-3.4,6.77-5.1,11.07-5.1c2.32,0,4.48,0.5,6.47,1.51c1.99,1.01,3.57,2.38,4.73,4.13h0.27v-4.56h5.9v31.46
				c0,5.28-1.5,9.41-4.49,12.41C723.95,503.48,719.92,505,714.92,505z M715.12,484.88c3.04,0,5.52-1.09,7.44-3.29
				c2.01-2.19,3.02-5.05,3.02-8.59c0-3.44-1.01-6.28-3.02-8.52c-1.97-2.24-4.45-3.35-7.44-3.35c-2.95,0-5.43,1.12-7.44,3.35
				c-2.01,2.24-3.02,5.08-3.02,8.52c0,3.49,1.01,6.33,3.02,8.52C709.69,483.76,712.17,484.88,715.12,484.88z"/>
			<path class="st1" d="M746.98,445.24c0,1.21-0.43,2.24-1.27,3.09c-0.85,0.85-1.88,1.27-3.09,1.27s-2.24-0.42-3.09-1.27
				c-0.85-0.85-1.27-1.88-1.27-3.09c0-1.21,0.42-2.24,1.27-3.08c0.85-0.85,1.88-1.27,3.09-1.27s2.24,0.43,3.09,1.27
				C746.55,443,746.98,444.03,746.98,445.24z M745.7,456.57v32.86h-6.17v-32.86H745.7z"/>
			<path class="st1" d="M768.17,490.51c-4.83,0-8.81-1.65-11.94-4.96c-3.13-3.31-4.69-7.49-4.69-12.54c0-5.01,1.52-9.18,4.56-12.51
				c3.04-3.33,6.93-5,11.67-5c4.87,0,8.75,1.58,11.64,4.73c2.88,3.15,4.33,7.57,4.33,13.25l-0.07,0.67h-25.82
				c0.09,3.22,1.16,5.81,3.22,7.78c2.06,1.97,4.52,2.95,7.38,2.95c3.93,0,7.02-1.97,9.26-5.9l5.5,2.68
				c-1.48,2.77-3.52,4.94-6.14,6.51C774.44,489.73,771.48,490.51,768.17,490.51z M758.31,469.05h18.85
				c-0.18-2.28-1.11-4.17-2.78-5.67c-1.68-1.5-3.92-2.25-6.74-2.25c-2.33,0-4.33,0.72-6,2.15
				C759.95,464.71,758.85,466.63,758.31,469.05z"/>
			<path class="st1" d="M795.53,489.44h-6.17v-32.86h5.9v5.37h0.27c0.63-1.74,1.91-3.23,3.86-4.46c1.95-1.23,3.86-1.84,5.73-1.84
				c1.79,0,3.31,0.27,4.56,0.8l-1.88,5.97c-0.76-0.31-1.97-0.47-3.62-0.47c-2.33,0-4.35,0.94-6.07,2.82
				c-1.72,1.88-2.58,4.07-2.58,6.57V489.44z"/>
			<path class="st1" d="M837.52,480.31c0,2.86-1.25,5.28-3.76,7.24c-2.5,1.97-5.66,2.95-9.46,2.95c-3.31,0-6.22-0.86-8.72-2.58
				c-2.5-1.72-4.29-3.99-5.37-6.81l5.5-2.35c0.8,1.97,1.98,3.5,3.52,4.59c1.54,1.1,3.23,1.64,5.06,1.64c1.97,0,3.61-0.42,4.93-1.27
				c1.32-0.85,1.98-1.85,1.98-3.02c0-2.1-1.61-3.64-4.83-4.63l-5.63-1.41c-6.39-1.61-9.59-4.69-9.59-9.26c0-2.99,1.22-5.4,3.65-7.21
				c2.44-1.81,5.56-2.72,9.36-2.72c2.91,0,5.53,0.69,7.88,2.08c2.35,1.39,3.99,3.24,4.93,5.57l-5.5,2.28
				c-0.63-1.39-1.64-2.47-3.05-3.25c-1.41-0.78-2.98-1.17-4.73-1.17c-1.61,0-3.05,0.4-4.33,1.21c-1.27,0.81-1.91,1.79-1.91,2.95
				c0,1.88,1.77,3.22,5.3,4.02l4.96,1.27C834.26,472.06,837.52,475.35,837.52,480.31z"/>
		</g>
		<g id="Group_00000080174735119907390630000006639590506924455053_" transform="translate(44.000000, 143.000000)">
			<path id="Rectangle-Copy_00000134213235095306624090000002437114778748214443_" class="st2" d="M308.35,290.37l-38.59,22.28
				c-5.29,3.05-7.1,9.81-4.04,15.1l0,0c3.05,5.29,9.81,7.1,15.1,4.04l38.59-22.28c5.29-3.05,7.1-9.81,4.04-15.1l0,0
				C320.39,289.13,313.64,287.32,308.35,290.37z"/>
			<path id="Rectangle-Copy-2_00000067920474050217380830000014828437769826715270_" class="st2" d="M319.05,335.1l-38.59-22.28
				c-5.29-3.05-12.04-1.24-15.1,4.04l0,0c-3.05,5.29-1.24,12.04,4.04,15.1L308,354.24c5.29,3.05,12.04,1.24,15.1-4.04l0,0
				C326.15,344.91,324.34,338.15,319.05,335.1z"/>
			<path id="Rectangle_00000175306681710302466310000018332568030283193790_" class="st2" d="M344.86,335.45l38.59-22.28
				c5.29-3.05,12.04-1.24,15.1,4.04l0,0c3.05,5.29,1.24,12.04-4.04,15.1l-38.59,22.28c-5.29,3.05-12.04,1.24-15.1-4.04l0,0
				C337.76,345.26,339.57,338.5,344.86,335.45z"/>
			<path class="st2" d="M356.26,290.72L394.84,313c5.29,3.05,7.1,9.81,4.05,15.1l0,0c-3.05,5.29-9.81,7.1-15.1,4.04l-38.59-22.28
				c-5.29-3.05-7.1-9.81-4.05-15.1l0,0C344.21,289.48,350.97,287.67,356.26,290.72z"/>
		</g>
		<path class="st1" d="M974.39,505.75h-24.81c-13.99-6.21-24.89-16.9-32.59-31.93c0.07-0.25,0.1-0.52,0.06-0.8
			c-1.8-13.5-2.26-29.83-1.29-45.98c0.07-1.08-0.76-2.01-1.84-2.07c-1.01-0.07-2,0.76-2.07,1.84c-0.73,12.15-0.66,24.4,0.17,35.53
			c-1.72-4.75-3.19-9.83-4.41-15.25c-0.02-0.11-0.06-0.21-0.1-0.31c0.58-7.08,1.69-14.48,3.33-22.24c0.22-1.06-0.45-2.1-1.51-2.32
			c-1.05-0.22-2.1,0.45-2.32,1.51c-1.15,5.45-2.04,10.74-2.68,15.87c-0.37,0.18-0.67,0.47-0.87,0.83c-1.92-0.33-3.86-0.35-5.78-0.06
			c-0.11-0.35-0.32-0.65-0.59-0.88c-0.75-5.31-1.9-10.6-3.43-15.89c-0.3-1.04-1.38-1.63-2.42-1.33c-1.04,0.3-1.64,1.39-1.33,2.43
			c2.06,7.1,3.39,14.23,3.99,21.37c0.01,0.13,0.02,0.26,0.03,0.39c-0.01,0.02-0.01,0.05-0.01,0.08c-0.03,0.1-0.05,0.2-0.06,0.31
			c-0.66,7.73-2.44,14.97-5.34,21.71c1.18-11.75,1.53-25.71,1.05-41.68c-0.03-1.08-0.92-1.92-2.02-1.9
			c-1.08,0.03-1.93,0.94-1.9,2.02c0.62,20.53-0.15,37.67-2.29,50.94c-0.02,0.11-0.02,0.22-0.02,0.32
			c-6.85,10.67-16.96,19.86-30.26,27.51h-21.2c-0.89,0-1.61,0.72-1.61,1.61c0,0.89,0.72,1.61,1.61,1.61h15.22h8.23h25.1h0.37h4.01
			h0.01h0.39h1.96h10.33h1.97h1.99h1.97h10.04h1.96h0.63h0.27h3.96h0.37h26.53h11.27h15.93c0.89,0,1.61-0.72,1.61-1.61
			C976,506.47,975.28,505.75,974.39,505.75z M903.5,468.23c0.28,3.43,0.71,6.77,1.29,10.03c-0.85-2.19-1.62-4.37-2.31-6.53
			C902.84,470.56,903.18,469.39,903.5,468.23z M897.8,446.01c0.03,0.33,0.04,0.65,0.07,0.98c0.02,0.33,0.05,0.65,0.07,0.98h5.08
			c-0.34,5.39-1.2,10.9-2.6,16.53c-1.15-4.68-1.94-9.29-2.35-13.81c-0.08-0.91-0.15-1.82-0.2-2.72c-0.02-0.33-0.04-0.65-0.05-0.98
			c-0.02-0.33-0.02-0.65-0.04-0.98H897.8z M897.36,468.25c0.32,1.15,0.65,2.31,1.01,3.47c-0.93,2.92-2,5.87-3.2,8.85
			C896.12,476.46,896.86,472.36,897.36,468.25z M882.01,505.75h-21.43c16.35-10.62,27.4-23.84,33.04-39.53
			C892.21,479.4,888.34,492.59,882.01,505.75z M899.87,505.75c0.22-1.84,0.41-3.74,0.59-5.7c0.17,1.96,0.37,3.86,0.59,5.7H899.87z
			 M914.22,505.75h-0.92H903c-0.88-7.43-1.4-15.77-1.55-25.25c-0.02-0.04-0.03-0.08-0.05-0.12c0.01-0.69,0.02-1.4,0.02-2.09
			c-0.01-1.07-0.02-2.14-0.02-3.24c0-1.05-0.01-2.11,0-3.19c0-0.53-0.43-0.97-0.96-0.98c-0.53,0.01-0.96,0.45-0.96,0.98
			c0.01,1.12,0,2.22,0,3.32c0,1.05-0.01,2.09-0.02,3.11c0.01,0.67,0.01,1.36,0.02,2.02c-0.01,0.04-0.03,0.08-0.04,0.12
			c-0.15,9.51-0.67,17.89-1.55,25.34h-10.56h-0.55h-0.43c0.42-0.9,10.01-17.42,13.1-25.34c0.01-0.7,0.02-1.42,0.02-2.13
			c-0.01-1.07-0.02-2.15-0.02-3.24c0-1.06-0.01-2.11,0-3.2c0-0.54,0.44-0.97,0.98-0.97c0,0,0,0,0.01,0c0.01,0,0.01,0,0.02,0
			c0.01,0,0.01,0,0.02,0c0,0,0,0,0.01,0c0.54,0,0.98,0.43,0.98,0.97c0.01,1.04,0,2.06,0,3.07c0,1.14-0.01,2.26-0.02,3.37
			c0.01,0.74,0.01,1.49,0.02,2.21c3.02,7.65,12.69,25.03,12.83,25.25H914.22z M918.91,505.75h-0.19c-0.47-0.82-0.93-1.65-1.37-2.49
			c-6.66-12.61-10.09-27.01-10.31-43.37c6.87,21.26,18.23,36.61,33.95,45.86H918.91z"/>
	</g>
</g>
</svg>
