<?xml version="1.0" encoding="utf-8"?>
<!-- Generator: Adobe Illustrator 26.2.1, SVG Export Plug-In . SVG Version: 6.00 Build 0)  -->
<svg version="1.1" id="Layer_1" xmlns="http://www.w3.org/2000/svg" xmlns:xlink="http://www.w3.org/1999/xlink" x="0px" y="0px"
	 viewBox="0 0 1280 1024" style="enable-background:new 0 0 1280 1024;" xml:space="preserve">
<style type="text/css">
	.st0{fill:#39B54A;}
	.st1{fill:#A67C52;}
	.st2{fill:#C69C6D;}
	.st3{fill:#754C24;}
	.st4{fill:#8C6239;}
	.st5{fill:#8CC63F;}
</style>
<g>
	<path class="st0" d="M382.31,512.28c-1.38,0-2.71,0.16-4,0.46c-1-21.01-18.35-37.74-39.61-37.74c-17.45,0-32.26,11.28-37.56,26.94
		c-1.84-1.54-4-2.7-6.36-3.4c0.01-0.42,0.02-0.85,0.02-1.27c0-25.98-21.06-47.04-47.04-47.04c-25.93,0-46.95,20.97-47.04,46.88
		c-11.01,2.89-19.17,12.81-19.4,24.68h26.28h25.75h39.66h14.89h11.78h6.76h60.12h11.13h20.33
		C395.06,516.13,389.14,512.28,382.31,512.28z"/>
	<g>
		<path class="st1" d="M1113.42,517.99h-946.5c-14.87,0-27.04,12.17-27.04,27.04l0,0c0,14.87,12.17,27.04,27.04,27.04h946.5
			c14.87,0,27.04-12.17,27.04-27.04l0,0C1140.46,530.16,1128.29,517.99,1113.42,517.99z"/>
		<path class="st1" d="M1124.21,517.99H156.13c-8.94,0-16.25,7.31-16.25,16.25v21.59c0,8.94,7.31,16.25,16.25,16.25h968.08
			c8.94,0,16.25-7.31,16.25-16.25v-21.59C1140.46,525.3,1133.15,517.99,1124.21,517.99z"/>
		<g>
			<path class="st2" d="M764.19,555.5c0.12-0.04,0.24-0.05,0.36-0.09c5.57-2.15,9.16-6.1,9.58-12.26c0.34-5.02-2.46-9.28-6.74-11.68
				c-3.24-1.82-7.02-2.38-10.57-3.28c-0.05-0.01-0.41-0.14-0.75-0.25c-0.18-0.14-0.38-0.32-0.54-0.53c-1.92-2.46-4.78-3.49-7.8-3.66
				c-6.72-0.4-8.96,6.43-9.56,11.71c-0.64,5.61,1.42,11.05,5.69,14.76c3.44,2.99,7.97,6.15,12.55,6.81
				C759.77,557.51,762.19,556.87,764.19,555.5z"/>
			<path class="st2" d="M725.58,569.59c4.7,3.14,11.61,1.58,15-2.77c0.2-0.26,0.39-0.52,0.58-0.77c0.89-0.62,1.65-1.42,2.22-2.38
				c2.17-3.7,0.81-8.38-2.78-10.59c-2.34-1.44-4.51-2.81-7.08-3.85c-2.08-0.85-4.14-0.81-6.31-0.49c-3.34,0.48-5.52,3.37-6.64,6.27
				c-0.88,2.29-0.45,4.92-0.05,7.24C721.02,565.26,723.09,567.93,725.58,569.59z"/>
			<path class="st2" d="M850.44,520.51c-0.88,2.29-0.45,4.92-0.05,7.24c0.51,3.01,2.58,5.68,5.07,7.34c4.7,3.14,11.61,1.58,15-2.77
				c0.2-0.26,0.39-0.52,0.58-0.77c0.89-0.62,1.65-1.42,2.22-2.38c2.17-3.7,0.81-8.38-2.78-10.59c-0.33-0.2-0.65-0.4-0.98-0.6h-17.75
				C851.21,518.79,850.77,519.64,850.44,520.51z"/>
			<path class="st2" d="M580.63,520.51c-0.88,2.29-0.45,4.92-0.05,7.24c0.51,3.01,2.58,5.68,5.07,7.34c4.7,3.14,11.61,1.58,15-2.77
				c0.2-0.26,0.39-0.52,0.58-0.77c0.89-0.62,1.65-1.42,2.22-2.38c2.17-3.7,0.81-8.38-2.78-10.59c-0.33-0.2-0.65-0.4-0.98-0.6h-17.75
				C581.4,518.79,580.96,519.64,580.63,520.51z"/>
			<path class="st3" d="M793.15,568.35c2.17-10.67-7.23-17.44-16.94-15.3c-3.91,0.86-7.84,3.37-11.08,5.62
				c-1.67,1.16-3.27,3.15-5.17,3.94c-0.1,0.04-3.41-0.77-5.57-1.22c-0.22-0.05-0.43-0.1-0.65-0.13c-0.34-0.07-0.63-0.12-0.83-0.14
				c-2.07-0.27-3.97,0.69-5.38,2.17c-2.38,2.23-3.51,5.81-2.24,8.77h46.44C792.38,570.95,792.87,569.72,793.15,568.35z"/>
			<path class="st4" d="M797.45,526.64c-8.45-3.23-15.54,3.73-16.79,11.68c-0.44,2.81,0.2,5.58,1.99,7.48
				c0.34,1.22,0.99,2.34,1.98,3.21c4.32,3.8,10.46,6.2,16.26,5.85c7.62-0.46,13.63-7.24,11.11-14.99
				C809.89,533.39,803.53,528.96,797.45,526.64z"/>
			<path class="st2" d="M824.64,545.22c-2.43-0.26-5.67,1.61-6.68,3.83c-2.81,6.18-7.31,7.88-13.69,9.19
				c-5.18,1.06-6.45,5.76-5.04,9.64c-0.7,1.17-1.02,2.58-0.78,4.2h37.44C841.1,561.55,838.31,546.65,824.64,545.22z"/>
			<path class="st2" d="M845.46,539c1.51-1.88,2.07-4.46,1.55-7.01c-2.33-11.46-15.18-15.28-25.25-12.1
				c-3.32,1.05-5.65,3.92-5.68,7.46c-0.05,5.87,4.06,10.29,9.74,11.3c1.34,0.24,2.7,0.38,4.06,0.52c0.28,0.03,0.57,0.06,0.85,0.09
				c1.07,3.05,3.71,5.3,7.24,5.3C841.26,544.55,844.54,542.18,845.46,539z"/>
			<path class="st3" d="M841.36,561.61c1.57,2.42,4.03,4.13,6.87,4.71c4.21,0.86,8.24-1.17,9.52-5.4c0.47-1.56,0.92-3.12,1.53-4.64
				c0.89-2.21,0.24-4.64-1.17-6.51c-0.07-2.62-1.71-5.25-3.89-6.53c-3.89-2.28-8.14-0.65-10.59,2.78c-0.19,0.26-0.37,0.53-0.55,0.8
				c-3.24,1.95-4.52,6.05-3.16,9.49C839.92,558.15,840.26,559.93,841.36,561.61z"/>
			<path class="st3" d="M725.96,543.69c2.88,0.16,5.96-1.06,7.12-3.76c1.22-2.84,1.82-5.19,1.26-8.3c-0.37-2.07-1.73-4.23-3.31-5.6
				c-2.78-2.42-6.18-3.51-9.67-4.48c-5.03-1.4-9.56,2.48-9.79,7.46c-0.17,3.57-0.17,7.68,1.09,11.05c1.49,3.98,5.16,6.56,9.52,5.4
				C723.6,545.09,724.85,544.48,725.96,543.69z"/>
			<path class="st4" d="M716.67,570.93c1.42-3.46,1.31-6.87,0.32-10.16c0.02-0.15,0.05-0.3,0.07-0.45c0.33-3.29-0.86-6.36-2.41-9.23
				c-0.69-3.09-2.08-5.86-3.56-8.69c-1.69-3.24-1.83-5.69-2.17-9.22c-0.65-6.73-3.49-11.4-9.88-13.9c-3.21-1.26-7.09,0.82-8.74,3.56
				c-4.77,7.92-4.4,17.15-2.92,25.96c1.3,7.72,2.88,17.09,8.16,23.29h20.57C716.31,571.7,716.51,571.34,716.67,570.93z"/>
			<path class="st2" d="M676.6,541.02c-1.05-0.58-2.14-1.09-3.18-1.69c-2.79-1.61-7.19-1.45-9.38,1.21
				c-2.24,2.72-3.61,5.72-3.55,9.31c0.07,3.49,1.4,6.43,3.58,9.08c2.34,2.85,6.46,3.74,9.91,2.91c4.01-0.96,6.26-4.46,7.75-7.99
				c1.95-2.94,1.96-7.46-0.89-9.84C679.5,542.88,678.13,541.86,676.6,541.02z"/>
			<path class="st3" d="M673.44,567.73c1.35-2.06,1.25-0.77-1.26-1.14c-2.26-0.33-4.48-1.04-6.65-1.75
				c-4.18-1.38-5.64-4.59-8.45-7.65c-8.79-9.58-20.85,5.54-16.09,14.89h47.07C688.65,565.3,678.11,560.6,673.44,567.73z"/>
			<path class="st2" d="M645.53,520.42c-8.3,4.87-12.74,16.46-5.24,23.92c7.62,7.58,17.13,2.22,20.24-6.3c0.47-1.3,0.76-2.67,1.13-4
				c0.32-1.17-0.41-0.02,1.29-0.98c0.52-0.3,1.12-0.5,1.74-0.66c2.96,0.5,5.73,1.33,7.44,1.99c0.66,0.25,1.28,0.4,1.89,0.48
				c6.04,1.51,13.25-4.61,8.83-11.05c-1.85-2.7-4.4-4.62-7.29-5.83h-24.24C649.26,518.58,647.31,519.37,645.53,520.42z"/>
			<path class="st4" d="M609.34,527.31c-1.26,7.46,1.02,13.64,4.82,19.2c2.11,6.08,6.51,10.69,12.6,14
				c8.76,4.78,16.57-8.59,7.81-13.36c-0.21-0.11-0.4-0.23-0.6-0.34c-0.35-0.96-0.93-1.91-1.79-2.8c-0.89-0.92-2.52-2.75-4.08-4.87
				c-0.14-1.15-0.08-2.42,0.23-3.82c0.51-2.32,2.92-4.67,4.27-6.56c1.63-2.28,2.74-4.93,3.42-7.63c0.25-1,0.27-2.08,0.09-3.14
				h-22.34C611.55,520.4,609.98,523.48,609.34,527.31z"/>
			<path class="st2" d="M629.56,565.36c-4.87-1.53-9.73-3.59-13.7-6.87c-3.98-3.28-5.67-8.98-9.03-12.92
				c-3.97-4.67-11.3-1.73-12.93,3.41c-1.68,5.28-1.74,10.91-1.5,16.4c0.09,2.1,0.13,4.42,0.39,6.7h42.13
				C634.72,569.21,633.07,566.46,629.56,565.36z"/>
			<path class="st2" d="M992.46,560.41c0.64-5.61-1.42-11.05-5.69-14.76c-3.44-2.99-7.97-6.15-12.55-6.81
				c-3.37-0.48-5.79,0.16-7.79,1.53c-0.12,0.04-0.24,0.05-0.36,0.09c-5.57,2.15-9.16,6.1-9.58,12.26
				c-0.34,5.02,2.46,9.28,6.74,11.68c3.24,1.82,7.02,2.38,10.57,3.28c0.05,0.01,0.41,0.14,0.75,0.25c0.18,0.14,0.38,0.32,0.54,0.53
				c1.81,2.32,4.46,3.35,7.28,3.61h2.01C989.95,571.44,991.91,565.28,992.46,560.41z"/>
			<path class="st2" d="M1005.05,526.28c-4.7-3.14-11.61-1.58-15,2.77c-0.2,0.26-0.39,0.52-0.58,0.77
				c-0.89,0.62-1.65,1.42-2.22,2.38c-2.17,3.7-0.81,8.38,2.78,10.59c2.34,1.44,4.51,2.81,7.08,3.85c2.08,0.85,4.14,0.81,6.31,0.49
				c3.34-0.48,5.52-3.37,6.64-6.27c0.88-2.29,0.45-4.92,0.05-7.24C1009.6,530.61,1007.53,527.94,1005.05,526.28z"/>
			<path class="st2" d="M880.24,568.12c-0.51-3.01-2.58-5.68-5.07-7.34c-4.7-3.14-11.61-1.58-15,2.77c-0.2,0.26-0.39,0.52-0.58,0.77
				c-0.89,0.62-1.65,1.42-2.22,2.38c-1,1.7-1.24,3.6-0.87,5.38h24.19C880.67,570.73,880.45,569.38,880.24,568.12z"/>
			<path class="st2" d="M1135.86,559.63c-2.31,0.69-4.42,2.04-5.88,3.91c-0.2,0.26-0.39,0.52-0.58,0.77
				c-0.89,0.62-1.65,1.42-2.22,2.38c-0.35,0.6-0.6,1.22-0.77,1.86C1130.24,566.39,1133.48,563.32,1135.86,559.63z"/>
			<path class="st3" d="M937.47,527.52c-2.17,10.67,7.23,17.44,16.94,15.3c3.91-0.86,7.84-3.37,11.08-5.62
				c1.67-1.16,3.27-3.15,5.17-3.94c0.1-0.04,3.41,0.77,5.57,1.22c0.22,0.05,0.43,0.1,0.65,0.13c0.34,0.07,0.63,0.12,0.83,0.14
				c2.07,0.27,3.97-0.69,5.38-2.17c3.45-3.24,4.28-9.34-1.07-12.24c-1.63-0.88-3.21-1.66-4.77-2.34h-32.16
				C941.36,520.04,938.36,523.14,937.47,527.52z"/>
			<path class="st4" d="M929.73,541.01c-7.62,0.46-13.63,7.24-11.11,14.99c2.11,6.48,8.47,10.91,14.55,13.23
				c8.45,3.23,15.54-3.73,16.79-11.68c0.44-2.81-0.2-5.58-1.99-7.48c-0.34-1.22-0.98-2.34-1.98-3.21
				C941.67,543.05,935.53,540.66,929.73,541.01z"/>
			<path class="st2" d="M905.98,550.65c2.43,0.26,5.67-1.61,6.68-3.83c2.81-6.18,7.31-7.88,13.69-9.19
				c5.18-1.06,6.45-5.76,5.04-9.64c0.92-1.54,1.19-3.51,0.36-5.81c-0.58-1.6-1.4-2.99-2.4-4.19h-30.4
				C888.83,527.6,889.49,548.92,905.98,550.65z"/>
			<path class="st2" d="M914.54,568.52c0.05-5.87-4.06-10.29-9.74-11.3c-1.34-0.24-2.7-0.38-4.06-0.52
				c-0.28-0.03-0.57-0.06-0.85-0.09c-1.07-3.05-3.71-5.3-7.24-5.3c-3.29,0-6.57,2.37-7.49,5.55c-1.51,1.88-2.07,4.46-1.55,7.01
				c0.69,3.41,2.33,6.12,4.53,8.19h25.5C914.21,571.01,914.53,569.81,914.54,568.52z"/>
			<path class="st3" d="M882.39,529.55c-4.21-0.86-8.24,1.17-9.52,5.4c-0.47,1.56-0.92,3.12-1.53,4.64
				c-0.89,2.21-0.24,4.64,1.17,6.51c0.07,2.62,1.71,5.25,3.89,6.53c3.89,2.28,8.14,0.65,10.59-2.78c0.19-0.26,0.37-0.53,0.55-0.8
				c3.24-1.95,4.52-6.05,3.16-9.49c0-1.84-0.34-3.62-1.43-5.3C887.69,531.83,885.23,530.13,882.39,529.55z"/>
			<path class="st3" d="M1019.04,566.86c0.17-3.57,0.17-7.68-1.09-11.05c-1.49-3.98-5.16-6.56-9.52-5.4
				c-1.41,0.37-2.66,0.99-3.78,1.78c-2.88-0.16-5.96,1.06-7.12,3.76c-1.23,2.84-1.82,5.19-1.26,8.3c0.37,2.07,1.73,4.23,3.31,5.6
				c1.05,0.91,2.19,1.64,3.39,2.24h13.92C1018.14,570.7,1018.95,568.87,1019.04,566.86z"/>
			<path class="st4" d="M1043.23,547.09c-1.35-8.03-3-17.86-8.8-24.03c-6.13-6.52-16.64-7.5-20.48,1.89
				c-1.42,3.46-1.31,6.87-0.32,10.16c-0.02,0.15-0.05,0.3-0.07,0.45c-0.33,3.29,0.86,6.36,2.41,9.23c0.69,3.09,2.08,5.86,3.56,8.69
				c1.69,3.24,1.83,5.69,2.17,9.22c0.37,3.78,1.42,6.91,3.41,9.37h15.75C1045.03,564.37,1044.65,555.54,1043.23,547.09z"/>
			<path class="st2" d="M1056.64,534.03c-4.01,0.96-6.26,4.46-7.75,7.99c-1.95,2.94-1.96,7.46,0.89,9.84
				c1.34,1.12,2.71,2.15,4.24,2.99c1.05,0.58,2.14,1.09,3.18,1.69c2.79,1.61,7.19,1.45,9.38-1.21c2.24-2.72,3.61-5.72,3.55-9.31
				c-0.07-3.49-1.4-6.43-3.58-9.08C1064.2,534.09,1060.08,533.21,1056.64,534.03z"/>
			<path class="st3" d="M1045.01,518.75c-0.02,0.03-0.04,0.07-0.07,0.1c-0.39,0.46-0.77,0.95-1.12,1.48
				c-5.49,8.37,7.91,16.11,13.36,7.81c-1.35,2.06-1.25,0.77,1.26,1.14c2.26,0.33,4.48,1.04,6.65,1.75c4.18,1.38,5.64,4.59,8.45,7.65
				c8.84,9.63,21-5.72,16.01-15.05c-1.26-2.36-2.93-4.2-4.85-5.65h-39.07C1045.43,518.24,1045.21,518.48,1045.01,518.75z"/>
			<path class="st2" d="M1090.33,551.54c-7.62-7.58-17.13-2.22-20.24,6.3c-0.47,1.3-0.76,2.67-1.13,4
				c-0.32,1.17,0.41,0.02-1.29,0.98c-0.52,0.3-1.12,0.5-1.74,0.66c-2.96-0.5-5.73-1.33-7.44-1.99c-0.66-0.25-1.28-0.4-1.89-0.48
				c-6.04-1.51-13.25,4.61-8.83,11.05c0,0.01,0.01,0.01,0.01,0.02h41.51C1094.63,566.38,1096.43,557.59,1090.33,551.54z"/>
			<path class="st4" d="M1098.02,567.11c-1.09,1.52-1.92,3.21-2.57,4.96h17.71c2.62,0,5.15-0.4,7.56-1.1
				c0.23-0.77,0.43-1.57,0.57-2.41c1.26-7.46-1.02-13.64-4.82-19.2c-2.11-6.08-6.51-10.69-12.6-14c-8.76-4.78-16.57,8.59-7.81,13.36
				c0.21,0.11,0.4,0.23,0.6,0.34c0.35,0.96,0.93,1.91,1.79,2.8c0.89,0.92,2.52,2.75,4.08,4.87c0.14,1.15,0.08,2.42-0.23,3.82
				C1101.77,562.88,1099.37,565.23,1098.02,567.11z"/>
			<path class="st2" d="M1113.15,517.99h-16.25c-0.03,0.25-0.06,0.51-0.07,0.77c-2.27,3.94-1.43,9.98,4.23,11.76
				c4.87,1.53,9.73,3.59,13.7,6.87c3.98,3.28,5.67,8.98,9.03,12.92c3.97,4.67,11.3,1.73,12.93-3.41c1.2-3.77,1.57-7.72,1.59-11.67
				C1134.37,525.17,1124.57,517.99,1113.15,517.99z"/>
			<path class="st2" d="M180.33,558.22c0.64-5.61-1.42-11.05-5.69-14.76c-3.44-2.99-7.97-6.15-12.55-6.81
				c-3.37-0.48-5.79,0.16-7.79,1.53c-0.12,0.04-0.24,0.05-0.36,0.09c-5.57,2.15-9.16,6.1-9.58,12.26
				c-0.34,5.02,2.46,9.28,6.74,11.68c3.24,1.82,7.02,2.38,10.57,3.28c0.05,0.01,0.41,0.14,0.75,0.25c0.18,0.14,0.38,0.32,0.54,0.53
				c1.92,2.46,4.78,3.49,7.8,3.66C177.48,570.33,179.72,563.5,180.33,558.22z"/>
			<path class="st2" d="M192.91,524.09c-4.7-3.14-11.61-1.58-15,2.77c-0.2,0.26-0.39,0.52-0.58,0.77c-0.89,0.62-1.65,1.42-2.22,2.38
				c-2.17,3.7-0.81,8.38,2.78,10.59c2.34,1.44,4.51,2.81,7.08,3.85c2.08,0.85,4.14,0.81,6.31,0.49c3.34-0.48,5.52-3.37,6.64-6.27
				c0.88-2.29,0.45-4.92,0.05-7.24C197.47,528.42,195.4,525.76,192.91,524.09z"/>
			<path class="st3" d="M139.96,540.95c0.77-0.06,1.54-0.15,2.32-0.32c3.91-0.86,7.84-3.37,11.08-5.62
				c1.67-1.16,3.27-3.15,5.17-3.94c0.1-0.04,3.41,0.77,5.57,1.22c0.22,0.05,0.43,0.1,0.65,0.13c0.34,0.07,0.63,0.12,0.83,0.14
				c2.07,0.26,3.97-0.69,5.38-2.17c3.45-3.24,4.28-9.34-1.07-12.24c-0.1-0.05-0.19-0.1-0.29-0.15h-2.93
				C153.17,517.99,141.94,528,139.96,540.95z"/>
			<path class="st3" d="M206.91,564.67c0.17-3.57,0.17-7.68-1.09-11.05c-1.49-3.98-5.16-6.56-9.52-5.4
				c-1.41,0.37-2.66,0.99-3.78,1.78c-2.88-0.16-5.96,1.06-7.12,3.76c-1.23,2.84-1.82,5.19-1.26,8.3c0.37,2.07,1.73,4.23,3.31,5.6
				c2.73,2.38,6.06,3.47,9.48,4.43h4.43C204.45,571.11,206.74,568.16,206.91,564.67z"/>
			<path class="st4" d="M228.17,570.86c4.77-7.92,4.4-17.15,2.92-25.96c-1.35-8.03-3-17.86-8.8-24.03c-1.07-1.14-2.29-2.1-3.57-2.88
				h-13.45c-1.4,1.12-2.61,2.67-3.46,4.77c-1.42,3.46-1.31,6.87-0.32,10.16c-0.02,0.15-0.05,0.3-0.07,0.45
				c-0.33,3.29,0.86,6.36,2.41,9.23c0.69,3.09,2.08,5.86,3.56,8.69c1.69,3.24,1.83,5.69,2.17,9.22c0.48,5.02,2.19,8.88,5.67,11.56
				h12.03C227.6,571.69,227.92,571.28,228.17,570.86z"/>
			<path class="st2" d="M244.5,531.84c-4.01,0.96-6.26,4.46-7.75,7.99c-1.95,2.94-1.96,7.46,0.89,9.84
				c1.34,1.12,2.71,2.15,4.24,2.99c1.05,0.58,2.14,1.09,3.18,1.69c2.79,1.61,7.19,1.45,9.38-1.21c2.24-2.72,3.61-5.72,3.55-9.31
				c-0.07-3.49-1.4-6.43-3.58-9.08C252.07,531.9,247.95,531.02,244.5,531.84z"/>
			<path class="st3" d="M231.69,518.14c-5.49,8.37,7.91,16.11,13.36,7.81c-1.35,2.06-1.25,0.77,1.26,1.14
				c2.26,0.33,4.48,1.04,6.65,1.75c4.18,1.38,5.64,4.59,8.45,7.65c8.84,9.63,21-5.72,16.01-15.05c-0.7-1.31-1.53-2.45-2.45-3.46
				h-43.16C231.77,518.04,231.73,518.09,231.69,518.14z"/>
			<path class="st2" d="M278.2,549.35c-7.62-7.58-17.13-2.22-20.24,6.3c-0.47,1.3-0.76,2.67-1.13,4c-0.32,1.17,0.41,0.02-1.29,0.98
				c-0.52,0.29-1.12,0.5-1.74,0.66c-2.96-0.5-5.73-1.33-7.44-1.99c-0.66-0.25-1.28-0.4-1.89-0.48c-6.04-1.51-13.25,4.61-8.83,11.05
				c0.55,0.81,1.17,1.54,1.83,2.21h37.23C281.83,566.7,285.15,556.25,278.2,549.35z"/>
			<path class="st4" d="M285.88,564.92c-1.53,2.14-2.59,4.61-3.28,7.15h24.64c0.89-1.68,1.55-3.57,1.9-5.7
				c1.26-7.46-1.02-13.64-4.82-19.2c-2.11-6.08-6.51-10.69-12.6-14c-8.76-4.78-16.57,8.59-7.81,13.36c0.21,0.11,0.4,0.23,0.6,0.34
				c0.35,0.96,0.93,1.91,1.79,2.8c0.89,0.92,2.52,2.75,4.08,4.87c0.14,1.15,0.08,2.42-0.23,3.82
				C289.64,560.69,287.23,563.04,285.88,564.92z"/>
			<path class="st2" d="M288.93,528.32c4.87,1.53,9.73,3.59,13.7,6.87c3.98,3.28,5.67,8.98,9.03,12.92
				c3.97,4.67,11.3,1.73,12.93-3.41c1.68-5.28,1.74-10.91,1.5-16.4c-0.14-3.24-0.14-7.01-1.1-10.32h-40.93
				C282.69,521.83,283.92,526.75,288.93,528.32z"/>
			<path class="st2" d="M432.93,570.13c-3.44-2.99-7.97-6.15-12.55-6.81c-3.37-0.48-5.79,0.16-7.79,1.53
				c-0.12,0.04-0.24,0.05-0.36,0.09c-3.83,1.48-6.69,3.83-8.26,7.14h30.83C434.23,571.39,433.62,570.73,432.93,570.13z"/>
			<path class="st2" d="M451.2,550.76c-4.7-3.14-11.61-1.58-15,2.77c-0.2,0.26-0.39,0.52-0.58,0.77c-0.89,0.62-1.65,1.42-2.22,2.38
				c-2.17,3.7-0.81,8.38,2.78,10.59c2.34,1.44,4.51,2.81,7.08,3.85c2.08,0.85,4.14,0.81,6.31,0.49c3.34-0.48,5.52-3.37,6.64-6.27
				c0.88-2.29,0.45-4.92,0.05-7.24C455.76,555.09,453.69,552.42,451.2,550.76z"/>
			<path class="st3" d="M400.59,539.45c-7.14,1.03-15.38,4.77-16.96,12.55c-2.17,10.67,7.23,17.44,16.94,15.3
				c3.91-0.86,7.84-3.37,11.08-5.62c1.67-1.16,3.27-3.15,5.17-3.94c0.1-0.04,3.41,0.77,5.57,1.22c0.22,0.05,0.43,0.1,0.65,0.13
				c0.34,0.07,0.63,0.12,0.83,0.14c2.07,0.26,3.97-0.69,5.38-2.17c3.45-3.24,4.28-9.34-1.07-12.24
				C418.83,539.75,410.98,537.95,400.59,539.45z"/>
			<path class="st4" d="M392.15,571.34c-4.32-3.8-10.46-6.2-16.26-5.85c-4.61,0.28-8.61,2.87-10.51,6.59h27.48
				C392.64,571.81,392.41,571.56,392.15,571.34z"/>
			<path class="st2" d="M372.51,562.11c5.18-1.06,6.45-5.76,5.04-9.64c0.92-1.54,1.19-3.51,0.36-5.81
				c-4.45-12.28-22.74-12.39-31.72-5.14c-9.1,7.34-10.75,23.66-1.98,30.56h14.15c0.18-0.25,0.33-0.51,0.45-0.77
				C361.63,565.12,366.13,563.42,372.51,562.11z"/>
			<path class="st3" d="M336.85,564.04c0-1.84-0.34-3.62-1.43-5.3c-1.57-2.42-4.03-4.13-6.87-4.71c-4.21-0.86-8.23,1.17-9.52,5.4
				c-0.47,1.56-0.92,3.12-1.53,4.64c-0.89,2.21-0.24,4.64,1.17,6.51c0.01,0.5,0.1,1,0.22,1.49h16.51
				C337.33,569.91,337.94,566.78,336.85,564.04z"/>
			<path class="st4" d="M489.38,571.57c-1.35-8.03-3-17.86-8.8-24.03c-6.13-6.52-16.64-7.5-20.48,1.89
				c-1.42,3.46-1.31,6.87-0.32,10.16c-0.02,0.15-0.05,0.3-0.07,0.45c-0.33,3.29,0.86,6.36,2.41,9.23c0.22,0.96,0.52,1.89,0.85,2.81
				h26.49C489.43,571.9,489.41,571.73,489.38,571.57z"/>
			<path class="st2" d="M512.7,561.42c-2.34-2.85-6.46-3.74-9.91-2.91c-4.01,0.96-6.26,4.46-7.75,7.99
				c-1.06,1.6-1.52,3.65-1.29,5.57h22.45c0.05-0.51,0.08-1.03,0.07-1.57C516.22,567.01,514.88,564.07,512.7,561.42z"/>
			<path class="st3" d="M504.6,553.76c2.26,0.33,4.48,1.04,6.65,1.75c4.18,1.38,5.64,4.59,8.45,7.65c8.84,9.63,21-5.72,16.01-15.05
				c-4.27-8-13.08-10.07-21.34-11.03c-8.22-0.96-17.85-1.12-23.21,6.14c-0.02,0.03-0.04,0.07-0.07,0.1
				c-0.39,0.46-0.77,0.95-1.12,1.48c-5.49,8.37,7.91,16.11,13.36,7.81C501.98,554.69,502.09,553.39,504.6,553.76z"/>
			<path class="st4" d="M550.02,559.84c-8.15-4.44-15.46,6.8-9.41,12.23h21.29C559.59,566.86,555.49,562.82,550.02,559.84z"/>
			<path class="st2" d="M582.88,571.37c1.68-5.28,1.74-10.91,1.5-16.4c-0.2-4.53-0.08-10.1-2.76-13.98
				c-2.8-4.06-7.1-5.05-11.77-5.15c-6.46-0.14-12.93-0.01-19.39,0c-4.84,0.01-7.32,3.65-7.47,7.4c-2.27,3.94-1.43,9.98,4.23,11.76
				c4.87,1.53,9.73,3.59,13.7,6.87c3.14,2.59,4.86,6.67,7.09,10.21h14.59C582.7,571.84,582.8,571.61,582.88,571.37z"/>
		</g>
		<g>
			
				<ellipse transform="matrix(0.3606 -0.9327 0.9327 0.3606 -398.1454 485.4972)" class="st5" cx="155.03" cy="533.14" rx="15.16" ry="15.16"/>
			<path class="st5" d="M200.5,533.14c0,8.37-6.79,15.16-15.16,15.16c-8.37,0-15.16-6.79-15.16-15.16c0-8.37,6.79-15.16,15.16-15.16
				C193.72,517.99,200.5,524.77,200.5,533.14z"/>
			
				<ellipse transform="matrix(0.1602 -0.9871 0.9871 0.1602 -345.1475 660.6146)" class="st5" cx="215.66" cy="533.14" rx="15.16" ry="15.16"/>
			
				<ellipse transform="matrix(0.7071 -0.7071 0.7071 0.7071 -304.9473 330.0792)" class="st5" cx="245.97" cy="533.14" rx="15.16" ry="15.16"/>
			
				<ellipse transform="matrix(0.2298 -0.9732 0.9732 0.2298 -306.0789 679.5394)" class="st5" cx="276.28" cy="533.14" rx="15.16" ry="15.16"/>
			
				<ellipse transform="matrix(0.2298 -0.9732 0.9732 0.2298 -282.7318 709.0396)" class="st5" cx="306.59" cy="533.14" rx="15.16" ry="15.16"/>
			
				<ellipse transform="matrix(0.7359 -0.6771 0.6771 0.7359 -272.0099 368.9117)" class="st5" cx="336.9" cy="533.14" rx="15.16" ry="15.16"/>
			
				<ellipse transform="matrix(0.7071 -0.7071 0.7071 0.7071 -269.4356 415.812)" class="st5" cx="367.21" cy="533.14" rx="15.16" ry="15.16"/>
			
				<ellipse transform="matrix(0.7071 -0.7071 0.7071 0.7071 -260.5576 437.2452)" class="st5" cx="397.52" cy="533.14" rx="15.16" ry="15.16"/>
			
				<ellipse transform="matrix(0.2307 -0.973 0.973 0.2307 -189.6262 826.4468)" class="st5" cx="427.83" cy="533.14" rx="15.16" ry="15.16"/>
			
				<ellipse transform="matrix(0.9248 -0.3805 0.3805 0.9248 -168.393 214.4132)" class="st5" cx="458.15" cy="533.14" rx="15.16" ry="15.16"/>
			
				<ellipse transform="matrix(0.1607 -0.987 0.987 0.1607 -116.2359 929.6016)" class="st5" cx="488.46" cy="533.14" rx="15.16" ry="15.16"/>
			
				<ellipse transform="matrix(0.7071 -0.7071 0.7071 0.7071 -225.046 522.978)" class="st5" cx="518.77" cy="533.14" rx="15.16" ry="15.16"/>
			
				<ellipse transform="matrix(0.2307 -0.973 0.973 0.2307 -96.3516 944.421)" class="st5" cx="549.08" cy="533.14" rx="15.16" ry="15.16"/>
			
				<ellipse transform="matrix(0.9248 -0.3805 0.3805 0.9248 -159.2741 260.5443)" class="st5" cx="579.39" cy="533.14" rx="15.16" ry="15.16"/>
			
				<ellipse transform="matrix(0.1607 -0.987 0.987 0.1607 -14.4701 1049.2711)" class="st5" cx="609.7" cy="533.14" rx="15.16" ry="15.16"/>
			
				<ellipse transform="matrix(0.7071 -0.7071 0.7071 0.7071 -189.5343 608.7108)" class="st5" cx="640.01" cy="533.14" rx="15.16" ry="15.16"/>
			
				<ellipse transform="matrix(0.7071 -0.7071 0.7071 0.7071 -180.6563 630.144)" class="st5" cx="670.32" cy="533.14" rx="15.16" ry="15.16"/>
			
				<ellipse transform="matrix(0.9248 -0.3805 0.3805 0.9248 -150.1552 306.6754)" class="st5" cx="700.63" cy="533.14" rx="15.16" ry="15.16"/>
			
				<ellipse transform="matrix(0.2143 -0.9768 0.9768 0.2143 53.5313 1132.8379)" class="st5" cx="730.95" cy="533.14" rx="15.16" ry="15.16"/>
			
				<ellipse transform="matrix(0.1607 -0.987 0.987 0.1607 112.737 1198.8582)" class="st5" cx="761.26" cy="533.14" rx="15.16" ry="15.16"/>
			
				<ellipse transform="matrix(0.7071 -0.7071 0.7071 0.7071 -145.1447 715.8768)" class="st5" cx="791.57" cy="533.14" rx="15.16" ry="15.16"/>
			
				<ellipse transform="matrix(0.2307 -0.973 0.973 0.2307 113.5162 1209.8629)" class="st5" cx="821.88" cy="533.14" rx="15.16" ry="15.16"/>
			
				<ellipse transform="matrix(0.9134 -0.4072 0.4072 0.9134 -143.2385 393.1721)" class="st5" cx="852.19" cy="533.14" rx="15.16" ry="15.16"/>
			
				<ellipse transform="matrix(0.1722 -0.9851 0.9851 0.1722 205.3845 1310.6801)" class="st5" cx="882.5" cy="533.14" rx="15.16" ry="15.16"/>
			
				<ellipse transform="matrix(0.8173 -0.5763 0.5763 0.8173 -140.4272 623.4487)" class="st5" cx="912.81" cy="533.14" rx="15.16" ry="15.16"/>
			
				<ellipse transform="matrix(0.7071 -0.7071 0.7071 0.7071 -100.755 823.0428)" class="st5" cx="943.12" cy="533.14" rx="15.16" ry="15.16"/>
			
				<ellipse transform="matrix(0.9248 -0.3805 0.3805 0.9248 -129.6376 410.4704)" class="st5" cx="973.43" cy="533.14" rx="15.16" ry="15.16"/>
			
				<ellipse transform="matrix(0.2307 -0.973 0.973 0.2307 253.4279 1386.824)" class="st5" cx="1003.75" cy="533.14" rx="15.16" ry="15.16"/>
			
				<ellipse transform="matrix(0.1481 -0.989 0.989 0.1481 353.6825 1476.8628)" class="st5" cx="1034.06" cy="533.14" rx="15.16" ry="15.16"/>
			
				<ellipse transform="matrix(0.7071 -0.7071 0.7071 0.7071 -65.2434 908.7756)" class="st5" cx="1064.37" cy="533.14" rx="15.16" ry="15.16"/>
			
				<ellipse transform="matrix(0.9248 -0.3805 0.3805 0.9248 -120.5187 456.6015)" class="st5" cx="1094.68" cy="533.14" rx="15.16" ry="15.16"/>
			
				<ellipse transform="matrix(0.2307 -0.973 0.973 0.2307 346.7025 1504.7982)" class="st5" cx="1124.99" cy="533.14" rx="15.16" ry="15.16"/>
			<path class="st5" d="M1135.96,532.51c-4.85-9.67-3.67-14.52-13.06-14.52H154c-9.39,0-4.76,4.85-9.62,14.52H1135.96z"/>
		</g>
	</g>
</g>
</svg>
