<?xml version="1.0" encoding="utf-8"?>
<!-- Generator: Adobe Illustrator 26.2.1, SVG Export Plug-In . SVG Version: 6.00 Build 0)  -->
<svg version="1.1" id="Layer_1" xmlns="http://www.w3.org/2000/svg" xmlns:xlink="http://www.w3.org/1999/xlink" x="0px" y="0px"
	 viewBox="0 0 1280 1024" style="enable-background:new 0 0 1280 1024;" xml:space="preserve">
<style type="text/css">
	.st0{fill:#E8C097;}
	.st1{fill:#DBDBD9;}
	.st2{fill:#22191B;}
	.st3{fill:#A4ACAE;}
	.st4{fill:#271B18;}
	.st5{fill:#FFC500;}
	.st6{fill:#36444E;}
	.st7{fill:#FFEACC;}
	.st8{clip-path:url(#XMLID_00000143594082160561425010000017007907860413107879_);fill:#FFC500;}
	.st9{clip-path:url(#XMLID_00000132790075910911335390000003050142065809724042_);fill:#DAD9D5;}
	.st10{clip-path:url(#XMLID_00000158744229044385432940000009377983048499635618_);fill:#DAD9D5;}
	.st11{clip-path:url(#XMLID_00000028285495856125660580000005304525822020086692_);fill:#DAD9D5;}
	.st12{clip-path:url(#XMLID_00000073707061197638153640000008859693925594906296_);fill:#FFC500;}
	.st13{fill:#A0ACB2;}
	.st14{opacity:0.3;}
	.st15{clip-path:url(#SVGID_00000170958147284324984490000001474058793675583402_);fill:#FFFFFF;}
	.st16{fill-rule:evenodd;clip-rule:evenodd;fill:#FFC500;}
	.st17{opacity:0.2;}
	.st18{font-family:'BungeeInline-Regular';}
	.st19{font-size:44.7427px;}
	.st20{fill:#F8ED08;}
	.st21{fill:#F6E0CB;}
</style>
<path class="st0" d="M892.76,801.33l-9.31-146.78c0,0,42.47-58.45,37.27-100.07c-2.54-20.33-42.74-9.8-84.67-26.87
	c-41.92-17.07-100.51-19.84-100.51-19.84l-39.97,51c0,0,2.11,25.94,17.69,46.37c15.59,20.42,24.16,20.96,29,42.73
	c1.82,8.21-14.23,153.45-14.23,153.45"/>
<path d="M889.32,798.1l-9.17-144.51l0.68-0.94c0.07-0.1,7.46-10.32,15.55-24.96l7.34,0.38c-6.95,12.58-14.95,24.51-16.99,27.41
	l9.45,149.06"/>
<path d="M724.82,800.97c6.38-57.73,15.45-145.96,14.28-152.42c-3.02-13.6-7.45-18.21-14.78-25.84c-3.7-3.85-8.31-8.65-13.63-15.61
	c-5.96-7.8-10.69-17.21-14.07-27.96l6.15-1.93c3.15,10.04,7.54,18.78,13.04,25.99c5.09,6.67,9.37,11.13,13.15,15.06
	c7.56,7.86,13.01,13.55,16.43,28.93c1.77,7.96-10.38,120.1-13.77,150.93"/>
<g>
	<g>
		<g>
			<g>
				<path class="st1" d="M941,534.82c-0.37,0-0.73-0.05-1.09-0.14l-2.41-0.65c-1.07-0.29-1.96-0.98-2.52-1.94
					c-0.55-0.96-0.7-2.08-0.41-3.15l4.37-16.12c0.49-1.81,2.14-3.07,4.01-3.07c0.37,0,0.73,0.05,1.09,0.15l2.41,0.65
					c1.07,0.29,1.96,0.98,2.52,1.94c0.55,0.96,0.7,2.08,0.41,3.15l-4.37,16.12C944.52,533.55,942.87,534.82,941,534.82z"/>
				<g>
					<path class="st2" d="M942.95,511.41c0.21,0,0.43,0.03,0.65,0.09l2.41,0.65c1.32,0.36,2.1,1.72,1.74,3.04l-4.37,16.12
						c-0.3,1.1-1.3,1.83-2.39,1.83c-0.21,0-0.43-0.03-0.65-0.09l-2.41-0.65c-1.32-0.36-2.1-1.72-1.74-3.04l4.37-16.12
						C940.86,512.14,941.86,511.41,942.95,511.41 M942.95,508.05L942.95,508.05c-2.63,0-4.94,1.77-5.63,4.31l-4.37,16.12
						c-0.84,3.1,1,6.31,4.1,7.15l2.41,0.65c0.5,0.14,1.01,0.2,1.53,0.2c2.63,0,4.94-1.77,5.63-4.31l4.37-16.12
						c0.41-1.5,0.21-3.08-0.57-4.43c-0.77-1.35-2.03-2.32-3.53-2.73l-2.41-0.65C943.98,508.12,943.47,508.05,942.95,508.05
						L942.95,508.05z"/>
				</g>
			</g>
			<g>
				<path class="st1" d="M927.8,409.83c-0.52,0-1.04-0.07-1.55-0.21l-21.43-5.81c-1.52-0.41-2.79-1.39-3.58-2.76
					c-0.79-1.37-0.99-2.96-0.58-4.48l1.5-5.53c0.7-2.57,3.04-4.36,5.7-4.36c0.52,0,1.04,0.07,1.55,0.21l21.43,5.81
					c3.14,0.85,5.01,4.1,4.16,7.25l-1.5,5.53C932.8,408.04,930.46,409.83,927.8,409.83z"/>
				<path class="st2" d="M907.86,388.63c0.34,0,0.69,0.04,1.04,0.14l21.43,5.81c2.11,0.57,3.35,2.74,2.78,4.85l-1.5,5.53
					c-0.48,1.76-2.07,2.92-3.81,2.92c-0.34,0-0.69-0.04-1.04-0.14l-21.43-5.81c-2.11-0.57-3.35-2.74-2.78-4.85l1.5-5.53
					C904.52,389.78,906.12,388.63,907.86,388.63 M907.86,384.71L907.86,384.71c-3.54,0-6.66,2.39-7.59,5.81l-1.5,5.53
					c-0.55,2.03-0.28,4.15,0.77,5.97s2.74,3.13,4.76,3.68l21.43,5.81c0.67,0.18,1.37,0.27,2.06,0.27c3.54,0,6.66-2.39,7.59-5.81
					l1.5-5.53c0.55-2.03,0.28-4.15-0.77-5.97c-1.04-1.82-2.74-3.13-4.76-3.68l-21.43-5.81
					C909.24,384.81,908.55,384.71,907.86,384.71L907.86,384.71z"/>
			</g>
			<path class="st3" d="M925.2,408.64l-20.43-5.54c-1.98-0.54-3.15-2.58-2.61-4.56l1.88-6.94c0.39-1.45,1.89-2.31,3.35-1.92
				l21.39,5.8c1.98,0.54,3.15,2.58,2.61,4.56l-1.62,5.99C929.22,408.01,927.18,409.18,925.2,408.64z"/>
			<path class="st4" d="M899.8,637.26l-208.61-56.55c-5.66-1.54-9.01-7.37-7.48-13.04l56.55-208.61c1.54-5.66,7.37-9.01,13.04-7.48
				l208.61,56.55c5.66,1.54,9.01,7.37,7.48,13.04l-56.55,208.61C911.3,635.45,905.46,638.79,899.8,637.26z"/>
			<path class="st5" d="M901.64,631.94l-209.37-56.75c-2.46-0.67-3.92-3.21-3.25-5.67l56.75-209.37c0.67-2.46,3.21-3.92,5.67-3.25
				l209.37,56.75c2.46,0.67,3.92,3.21,3.25,5.67l-56.75,209.37C906.65,631.15,904.11,632.61,901.64,631.94z"/>
			<path class="st2" d="M892.41,524.76l-167.88-45.51c-3.45-0.93-5.48-4.48-4.55-7.93l28.41-104.79c0.93-3.45,4.48-5.48,7.93-4.55
				l167.88,45.51c3.45,0.93,5.48,4.48,4.55,7.93l-28.41,104.79C899.4,523.66,895.85,525.7,892.41,524.76z"/>
			<g>
				<path class="st6" d="M893.05,520.04l-166.7-45.18c-1.12-0.3-1.79-1.46-1.48-2.58l28.22-104.09c0.3-1.12,1.46-1.79,2.58-1.48
					l166.7,45.18c1.12,0.3,1.79,1.46,1.48,2.58l-28.22,104.09C895.33,519.69,894.17,520.35,893.05,520.04z"/>
			</g>
			<g>
				<g>
					<path class="st7" d="M1003.71,494.64c-0.18,0-0.36-0.01-0.54-0.03c-0.08-0.01-0.19-0.02-0.31-0.04
						c-0.17-0.02-0.33-0.06-0.51-0.11l-24.27-6.58c-2.54-0.69-4.09-3.14-3.46-5.47l4.2-15.48c0.02-0.07,0.09-0.31,0.09-0.31
						l0.06-0.13c0.66-1.65,2.32-2.71,4.24-2.71c0.46,0,0.91,0.06,1.36,0.18l24.27,6.58c1.19,0.32,2.2,1.04,2.86,2.02
						c0.69,1.04,0.91,2.29,0.6,3.45l-4.2,15.48C1007.58,493.38,1005.82,494.64,1003.71,494.64z"/>
					<path class="st2" d="M983.21,465.46c0.3,0,0.61,0.04,0.92,0.12l24.27,6.58c1.65,0.45,2.66,1.97,2.27,3.41l-4.2,15.48
						c-0.32,1.17-1.46,1.92-2.77,1.92c-0.12,0-0.24-0.01-0.36-0.02c-0.07-0.01-0.14-0.02-0.21-0.03c-0.11-0.01-0.23-0.04-0.34-0.07
						l-24.27-6.58c-1.65-0.45-2.67-1.97-2.28-3.41l4.2-15.48c0.02-0.07,0.04-0.14,0.07-0.21c0-0.01,0.01-0.03,0.02-0.04
						C980.93,466.1,982,465.46,983.21,465.46 M983.21,462.11L983.21,462.11c-2.6,0-4.87,1.47-5.79,3.75l-0.07,0.17l-0.04,0.15
						c-0.03,0.11-0.07,0.21-0.1,0.32l-4.2,15.48c-0.44,1.62-0.14,3.38,0.82,4.82c0.88,1.32,2.23,2.28,3.81,2.71l24.27,6.58
						c0.16,0.04,0.39,0.1,0.67,0.14c0.15,0.03,0.29,0.05,0.44,0.06c0.23,0.02,0.46,0.03,0.69,0.03c2.83,0,5.3-1.81,6-4.39l4.2-15.48
						c0.44-1.62,0.14-3.37-0.82-4.81c-0.88-1.32-2.23-2.28-3.81-2.71l-24.27-6.58C984.42,462.19,983.81,462.11,983.21,462.11
						L983.21,462.11z"/>
				</g>
				<path class="st5" d="M1007.82,475.64l-4.68,17.28c-0.11-0.01-0.23-0.04-0.34-0.07l-24.27-6.58c-1.65-0.45-2.67-1.97-2.28-3.41
					l4.2-15.48c0.02-0.07,0.04-0.14,0.07-0.21c0-0.01,0.01-0.03,0.02-0.04c0.04,0.01,0.08,0.02,0.12,0.03l26.27,7.12
					C1007.57,474.46,1007.97,475.06,1007.82,475.64z"/>
				<g>
					<path class="st1" d="M955.61,539.15c-0.82,0-1.64-0.11-2.44-0.33l-1.04-0.28c-2.42-0.66-4.45-2.22-5.7-4.4
						c-1.25-2.18-1.58-4.72-0.92-7.14l17.33-63.94c0.11-0.42,0.28-0.82,0.5-1.19c0.86-1.46,2.44-2.36,4.13-2.36
						c0.43,0,0.85,0.06,1.26,0.17l9.82,2.66c2.56,0.69,4.08,3.34,3.38,5.9l-17.36,64.04c-0.94,3.47-3.72,6.04-7.26,6.71
						C956.76,539.1,956.18,539.15,955.61,539.15z"/>
					<path class="st2" d="M967.48,461.18c0.27,0,0.55,0.04,0.82,0.11l9.82,2.66c1.67,0.45,2.66,2.17,2.2,3.84l-17.36,64.04
						c-0.79,2.92-3.17,4.98-5.95,5.5c-0.46,0.09-0.94,0.13-1.42,0.13c-0.66,0-1.33-0.09-2-0.27l-1.04-0.28
						c-4.12-1.12-6.55-5.37-5.44-9.49l17.33-63.94c0.08-0.28,0.19-0.54,0.33-0.78C965.35,461.77,966.38,461.18,967.48,461.18
						 M967.48,457.83L967.48,457.83c-2.28,0-4.42,1.22-5.58,3.19c-0.3,0.5-0.52,1.04-0.68,1.6l-17.33,63.94
						c-1.6,5.9,1.9,12,7.8,13.6l1.04,0.28c0.94,0.25,1.91,0.38,2.87,0.38c0.68,0,1.36-0.06,2.04-0.19c4.18-0.79,7.46-3.82,8.57-7.92
						l17.36-64.04c0.94-3.45-1.11-7.02-4.56-7.96l-9.82-2.66C968.63,457.91,968.06,457.83,967.48,457.83L967.48,457.83z"/>
				</g>
				<g>
					<path class="st3" d="M977.05,469.28l-17.36,64.04c-0.45,1.66-1.42,3.04-2.68,4.03c-1.1,0.21-2.26,0.18-3.41-0.13l-1.04-0.28
						c-4.12-1.12-6.55-5.37-5.44-9.49l17.33-63.94c0.08-0.28,0.19-0.54,0.33-0.78c0.08,0.01,0.16,0.03,0.24,0.05l9.81,2.66
						C976.52,465.89,977.51,467.61,977.05,469.28z"/>
				</g>
				<circle class="st5" cx="955.09" cy="529.48" r="2.93"/>
			</g>
		</g>
		<g>
			<g>
				<defs>
					<path id="XMLID_00000085229305974819043460000010682185119737465999_" d="M776.86,541.29c-1.01,4.3-4.91,7.12-9.11,6.96
						c-0.68-0.02-1.35-0.12-2.03-0.31l-13.01-3.53c-0.01,0-0.02,0-0.02,0.01l-3.53,13.01c-1.12,4.14-4.94,6.82-9.04,6.66
						c-0.77-0.02-1.55-0.15-2.32-0.39c-0.98-0.3-1.88-0.77-2.66-1.35c-2.95-2.19-4.35-6.12-3.33-9.86l3.47-12.79
						c0-0.01,0-0.02-0.01-0.02l-13.01-3.53c-0.48-0.13-0.93-0.3-1.37-0.5c-3.11-1.4-5.13-4.45-5.28-7.79
						c-0.05-1.01,0.08-2.05,0.39-3.08c0.53-1.72,1.54-3.16,2.86-4.23c2.25-1.84,5.36-2.57,8.36-1.76l12.78,3.46
						c0.01,0,0.02-0.01,0.02-0.02l3.53-13.01c0.5-1.86,1.56-3.42,2.94-4.57c2.25-1.87,5.39-2.62,8.43-1.69
						c4.69,1.44,7.27,6.48,5.99,11.21l-3.46,12.78c0,0.01,0,0.02,0.01,0.03l12.78,3.46C774.94,531.75,777.98,536.52,776.86,541.29z"
						/>
				</defs>
				<use xlink:href="#XMLID_00000085229305974819043460000010682185119737465999_"  style="overflow:visible;fill:#FFEACC;"/>
				<clipPath id="XMLID_00000127034856763959094270000008139447239052390325_">
					<use xlink:href="#XMLID_00000085229305974819043460000010682185119737465999_"  style="overflow:visible;"/>
				</clipPath>
				<path style="clip-path:url(#XMLID_00000127034856763959094270000008139447239052390325_);fill:#FFC500;" d="M752,505.13
					L752,505.13c3.74,1.01,5.95,4.86,4.93,8.6l-12.59,46.46c-1.01,3.74-4.86,5.95-8.6,4.93l0,0c-3.74-1.01-5.95-4.86-4.93-8.6
					l12.59-46.46C744.41,506.33,748.26,504.12,752,505.13z"/>
				<path style="clip-path:url(#XMLID_00000127034856763959094270000008139447239052390325_);fill:#FFC500;" d="M713.11,526.32
					L713.11,526.32c1.01-3.74,4.86-5.95,8.6-4.93l46.46,12.59c3.74,1.01,5.95,4.86,4.93,8.6l0,0c-1.01,3.74-4.86,5.95-8.6,4.93
					l-46.46-12.59C714.3,533.9,712.09,530.05,713.11,526.32z"/>
				
					<use xlink:href="#XMLID_00000085229305974819043460000010682185119737465999_"  style="overflow:visible;fill:none;stroke:#22191B;stroke-width:3.3539;stroke-miterlimit:10;"/>
			</g>
			<g>
				<path class="st7" d="M910.91,547.17l0.35,0.09c1.59,0.43,2.53,2.07,2.09,3.65l-10.09,37.21c-0.43,1.59-2.07,2.53-3.65,2.09
					l-0.35-0.09c-1.59-0.43-2.53-2.07-2.09-3.65l10.09-37.21C907.69,547.68,909.32,546.74,910.91,547.17z"/>
			</g>
			<g>
				<path class="st7" d="M915,532.77L915,532.77c1.68,0.46,2.68,2.19,2.22,3.87l-1.72,6.35c-0.46,1.68-2.19,2.68-3.87,2.22l0,0
					c-1.68-0.46-2.68-2.19-2.22-3.87l1.72-6.35C911.58,533.3,913.32,532.31,915,532.77z"/>
			</g>
			<g>
				<g>
					<defs>
						<circle id="XMLID_00000080207069247081023770000002875323481011424652_" cx="943.71" cy="426.84" r="10.62"/>
					</defs>
					<use xlink:href="#XMLID_00000080207069247081023770000002875323481011424652_"  style="overflow:visible;fill:#828687;"/>
					<clipPath id="XMLID_00000098931282473758268880000016359150910780717468_">
						<use xlink:href="#XMLID_00000080207069247081023770000002875323481011424652_"  style="overflow:visible;"/>
					</clipPath>
					
						<rect x="939.95" y="414.99" transform="matrix(0.6722 0.7403 -0.7403 0.6722 623.7558 -558.3433)" style="clip-path:url(#XMLID_00000098931282473758268880000016359150910780717468_);fill:#DAD9D5;" width="5.03" height="20.61"/>
					
						<rect x="944.57" y="419.03" transform="matrix(0.6722 0.7403 -0.7403 0.6722 627.8049 -559.4022)" style="clip-path:url(#XMLID_00000098931282473758268880000016359150910780717468_);fill:#DAD9D5;" width="2.23" height="20.61"/>
					
						<use xlink:href="#XMLID_00000080207069247081023770000002875323481011424652_"  style="overflow:visible;fill:none;stroke:#22191B;stroke-width:2.236;stroke-miterlimit:10;"/>
				</g>
				<g>
					<circle class="st7" cx="943.71" cy="426.84" r="3.15"/>
				</g>
			</g>
			<g>
				<g>
					<defs>
						<circle id="XMLID_00000158711883680116965750000006966834368261442698_" cx="893.16" cy="613.34" r="10.62"/>
					</defs>
					<use xlink:href="#XMLID_00000158711883680116965750000006966834368261442698_"  style="overflow:visible;fill:#828687;"/>
					<clipPath id="XMLID_00000167397937027035774590000013315864419287686291_">
						<use xlink:href="#XMLID_00000158711883680116965750000006966834368261442698_"  style="overflow:visible;"/>
					</clipPath>
					
						<rect x="889.4" y="601.48" transform="matrix(0.6722 0.7403 -0.7403 0.6722 745.2547 -459.7936)" style="clip-path:url(#XMLID_00000167397937027035774590000013315864419287686291_);fill:#DAD9D5;" width="5.03" height="20.61"/>
					
						<rect x="894.02" y="605.53" transform="matrix(0.6722 0.7403 -0.7403 0.6722 749.3038 -460.8525)" style="clip-path:url(#XMLID_00000167397937027035774590000013315864419287686291_);fill:#DAD9D5;" width="2.23" height="20.61"/>
					
						<use xlink:href="#XMLID_00000158711883680116965750000006966834368261442698_"  style="overflow:visible;fill:none;stroke:#22191B;stroke-width:2.236;stroke-miterlimit:10;"/>
				</g>
				<g>
					<circle class="st7" cx="893.16" cy="613.34" r="3.15"/>
				</g>
			</g>
			<g>
				<g>
					<defs>
						<circle id="XMLID_00000048494510217311337290000000037709457795642776_" cx="705.74" cy="562.53" r="10.62"/>
					</defs>
					<use xlink:href="#XMLID_00000048494510217311337290000000037709457795642776_"  style="overflow:visible;fill:#828687;"/>
					<clipPath id="XMLID_00000075139948512755632630000014275298469090946747_">
						<use xlink:href="#XMLID_00000048494510217311337290000000037709457795642776_"  style="overflow:visible;"/>
					</clipPath>
					
						<rect x="701.98" y="550.68" transform="matrix(0.6722 0.7403 -0.7403 0.6722 646.2143 -337.6897)" style="clip-path:url(#XMLID_00000075139948512755632630000014275298469090946747_);fill:#DAD9D5;" width="5.03" height="20.61"/>
					
						<rect x="706.6" y="554.72" transform="matrix(0.6722 0.7403 -0.7403 0.6722 650.2634 -338.7486)" style="clip-path:url(#XMLID_00000075139948512755632630000014275298469090946747_);fill:#DAD9D5;" width="2.23" height="20.61"/>
					
						<use xlink:href="#XMLID_00000048494510217311337290000000037709457795642776_"  style="overflow:visible;fill:none;stroke:#22191B;stroke-width:2.236;stroke-miterlimit:10;"/>
				</g>
				<g>
					<circle class="st7" cx="705.74" cy="562.53" r="3.15"/>
				</g>
			</g>
			<g>
				<g>
					<g>
						<defs>
							<circle id="XMLID_00000180364501419000481460000005884027608701237936_" cx="936.23" cy="454.45" r="10.16"/>
						</defs>
						<use xlink:href="#XMLID_00000180364501419000481460000005884027608701237936_"  style="overflow:visible;fill:#FFEACC;"/>
						<clipPath id="XMLID_00000179605117062630938030000013491546587421978544_">
							<use xlink:href="#XMLID_00000180364501419000481460000005884027608701237936_"  style="overflow:visible;"/>
						</clipPath>
						<path style="clip-path:url(#XMLID_00000179605117062630938030000013491546587421978544_);fill:#FFC500;" d="M943.51,458.18
							c-0.48,1.75-1.41,3.26-2.65,4.42c-2.16,1.35-4.86,1.83-7.52,1.11c-5.07-1.37-8.07-6.6-6.69-11.67
							c0.47-1.74,1.4-3.23,2.61-4.39c2.17-1.36,4.89-1.85,7.56-1.13C941.89,447.89,944.88,453.11,943.51,458.18z"/>
						
							<use xlink:href="#XMLID_00000180364501419000481460000005884027608701237936_"  style="overflow:visible;fill:none;stroke:#22191B;stroke-width:2.236;stroke-miterlimit:10;"/>
					</g>
				</g>
				<g>
					<circle class="st7" cx="936.23" cy="454.45" r="3.71"/>
				</g>
			</g>
			<g>
				<g>
					<path class="st13" d="M920.01,519.43c-0.45,0-0.91-0.06-1.35-0.18c-1.32-0.36-2.43-1.21-3.11-2.4c-0.68-1.19-0.86-2.57-0.5-3.9
						l8.91-32.87c0.61-2.23,2.64-3.79,4.95-3.79c0.45,0,0.91,0.06,1.35,0.18c2.73,0.74,4.35,3.57,3.61,6.3l-8.91,32.87
						C924.36,517.87,922.33,519.43,920.01,519.43z"/>
					<path class="st2" d="M928.92,477.95L928.92,477.95c0.3,0,0.61,0.04,0.91,0.12c0.89,0.24,1.64,0.82,2.1,1.62
						c0.46,0.8,0.58,1.73,0.34,2.63l-8.91,32.87c-0.41,1.51-1.78,2.56-3.34,2.56c-0.3,0-0.61-0.04-0.91-0.12
						c-0.89-0.24-1.64-0.82-2.1-1.62c-0.46-0.8-0.58-1.73-0.34-2.63l8.91-32.87C925.99,479.01,927.36,477.95,928.92,477.95
						 M928.92,474.6c-3,0-5.75,2-6.57,5.03l-8.91,32.87c-0.98,3.63,1.16,7.37,4.79,8.36v0c0.6,0.16,1.2,0.24,1.79,0.24
						c3,0,5.75-2,6.57-5.03l8.91-32.87c0.98-3.63-1.16-7.37-4.79-8.36v0C930.11,474.68,929.51,474.6,928.92,474.6L928.92,474.6z"/>
				</g>
				<g>
					<circle class="st6" cx="929" cy="481.21" r="1.02"/>
					<circle class="st6" cx="927.71" cy="485.99" r="1.02"/>
					<circle class="st6" cx="926.41" cy="490.76" r="1.02"/>
					<circle class="st6" cx="925.12" cy="495.54" r="1.02"/>
					<circle class="st6" cx="923.82" cy="500.31" r="1.02"/>
					<circle class="st6" cx="922.53" cy="505.09" r="1.02"/>
					<circle class="st6" cx="921.23" cy="509.87" r="1.02"/>
					<circle class="st6" cx="919.92" cy="514.63" r="1.02"/>
					<circle class="st6" cx="919.25" cy="517.09" r="1.02"/>
					<circle class="st6" cx="928.21" cy="478.54" r="1.02"/>
					<circle class="st6" cx="926.91" cy="483.31" r="1.02"/>
					<circle class="st6" cx="925.62" cy="488.09" r="1.02"/>
					<circle class="st6" cx="924.33" cy="492.86" r="1.02"/>
					<circle class="st6" cx="923.03" cy="497.64" r="1.02"/>
					<circle class="st6" cx="921.74" cy="502.42" r="1.02"/>
					<circle class="st6" cx="920.44" cy="507.19" r="1.02"/>
					<circle class="st6" cx="919.15" cy="511.97" r="1.02"/>
					<circle class="st6" cx="931.81" cy="482.25" r="1.02"/>
					<circle class="st6" cx="930.51" cy="487.03" r="1.02"/>
					<circle class="st6" cx="929.22" cy="491.8" r="1.02"/>
					<circle class="st6" cx="927.92" cy="496.58" r="1.02"/>
					<circle class="st6" cx="926.63" cy="501.35" r="1.02"/>
					<circle class="st6" cx="925.33" cy="506.13" r="1.02"/>
					<circle class="st6" cx="924.04" cy="510.9" r="1.02"/>
					<circle class="st6" cx="922.74" cy="515.68" r="1.02"/>
					<circle class="st6" cx="926.05" cy="480.52" r="1.02"/>
					<circle class="st6" cx="924.76" cy="485.29" r="1.02"/>
					<circle class="st6" cx="923.46" cy="490.07" r="1.02"/>
					<circle class="st6" cx="922.17" cy="494.84" r="1.02"/>
					<circle class="st6" cx="920.88" cy="499.62" r="1.02"/>
					<circle class="st6" cx="919.58" cy="504.39" r="1.02"/>
					<circle class="st6" cx="918.29" cy="509.17" r="1.02"/>
					<circle class="st6" cx="916.99" cy="513.95" r="1.02"/>
					<circle class="st6" cx="931.01" cy="479.58" r="1.02"/>
					<circle class="st6" cx="929.72" cy="484.35" r="1.02"/>
					<circle class="st6" cx="928.42" cy="489.13" r="1.02"/>
					<circle class="st6" cx="927.13" cy="493.9" r="1.02"/>
					<circle class="st6" cx="925.84" cy="498.68" r="1.02"/>
					<circle class="st6" cx="924.54" cy="503.46" r="1.02"/>
					<circle class="st6" cx="923.25" cy="508.23" r="1.02"/>
					<circle class="st6" cx="921.95" cy="513.01" r="1.02"/>
				</g>
				<g>
					<path class="st2" d="M928.92,477.95L928.92,477.95c0.3,0,0.61,0.04,0.91,0.12c0.89,0.24,1.64,0.82,2.1,1.62
						c0.46,0.8,0.58,1.73,0.34,2.63l-8.91,32.87c-0.41,1.51-1.78,2.56-3.34,2.56c-0.3,0-0.61-0.04-0.91-0.12
						c-0.89-0.24-1.64-0.82-2.1-1.62c-0.46-0.8-0.58-1.73-0.34-2.63l8.91-32.87C925.99,479.01,927.36,477.95,928.92,477.95
						 M928.92,474.6c-3,0-5.75,2-6.57,5.03l-8.91,32.87c-0.98,3.63,1.16,7.37,4.79,8.36v0c0.6,0.16,1.2,0.24,1.79,0.24
						c3,0,5.75-2,6.57-5.03l8.91-32.87c0.98-3.63-1.16-7.37-4.79-8.36v0C930.11,474.68,929.51,474.6,928.92,474.6L928.92,474.6z"/>
				</g>
			</g>
			<g>
				<g>
					<g>
						<g>
							<path class="st7" d="M828.32,552.87c-1.33,0-2.67-0.18-3.96-0.53c-8.04-2.18-12.81-10.5-10.63-18.54
								c1.78-6.57,7.78-11.16,14.58-11.16c1.33,0,2.67,0.18,3.96,0.53c3.9,1.06,7.15,3.57,9.16,7.07c2.01,3.5,2.53,7.58,1.48,11.47
								C841.12,548.28,835.12,552.87,828.32,552.87z"/>
							<path class="st2" d="M828.31,524.32c1.16,0,2.35,0.15,3.52,0.47c7.16,1.94,11.39,9.32,9.45,16.48
								c-1.62,5.98-7.04,9.92-12.96,9.92c-1.16,0-2.35-0.15-3.52-0.47c-7.16-1.94-11.39-9.32-9.45-16.48
								C816.97,528.26,822.39,524.32,828.31,524.32 M828.31,520.97L828.31,520.97c-7.56,0-14.22,5.1-16.2,12.4
								c-1.17,4.33-0.59,8.85,1.64,12.74c2.23,3.89,5.84,6.68,10.17,7.85c1.44,0.39,2.92,0.59,4.4,0.59c7.56,0,14.22-5.1,16.19-12.4
								c2.42-8.93-2.88-18.17-11.81-20.59C831.27,521.16,829.79,520.97,828.31,520.97L828.31,520.97z"/>
						</g>
						<path class="st5" d="M839.15,542.92c-0.67,2.47-1.99,4.6-3.73,6.24c-3.05,1.9-6.86,2.58-10.62,1.56
							c-7.16-1.94-11.39-9.32-9.45-16.48c0.67-2.46,1.97-4.56,3.69-6.2c3.07-1.92,6.9-2.61,10.67-1.59
							C836.85,528.38,841.09,535.76,839.15,542.92z"/>
					</g>
					<g>
						<path class="st7" d="M835.24,539.63c-0.49,1.81-1.63,3.26-3.11,4.18c-1.62,1.01-3.64,1.37-5.63,0.83
							c-3.79-1.03-6.03-4.94-5.01-8.73c0.35-1.3,1.04-2.42,1.95-3.29c1.74-1.66,4.29-2.39,6.78-1.72
							C834.03,531.93,836.27,535.84,835.24,539.63z"/>
					</g>
					<g>
						<path class="st5" d="M830.16,539.85l0.9-3.31c0.03-0.1-0.03-0.2-0.13-0.23l-0.77-0.21c-0.1-0.03-0.2,0.04-0.23,0.13
							l-0.44,1.63l0.67,1.97C830.16,539.84,830.16,539.85,830.16,539.85"/>
						<path class="st5" d="M827.39,537.32l0.45-1.65c0.03-0.1-0.03-0.2-0.13-0.23l-0.77-0.21c-0.1-0.03-0.2,0.03-0.23,0.13
							l-0.91,3.35c0.01-0.02,0.02-0.04,0.03-0.05L827.39,537.32z"/>
						<path class="st5" d="M829.99,540.02l-0.67-1.97l-0.23-0.67c0.01,0.06,0,0.13-0.05,0.18l-0.76,0.67l0.56,1.68
							c0,0.01,0,0.01,0.01,0.02c0,0,0,0.01,0,0.01c0.02,0.04,0.05,0.08,0.09,0.1c0,0,0,0,0,0c0.01,0,0.02,0.01,0.03,0.01
							c0.01,0,0.01,0,0.02,0.01l0.76,0.21c0.02,0.01,0.04,0.01,0.05,0.01c0.01,0,0.02,0,0.03,0c0.01,0,0.02,0,0.03-0.01
							c0.01,0,0.02-0.01,0.02-0.01c0.04-0.02,0.07-0.05,0.08-0.09c0-0.01,0.01-0.02,0.01-0.03l0.02-0.09
							C830,540.03,830,540.02,829.99,540.02"/>
						<path class="st5" d="M829.09,537.38c-0.01-0.07-0.06-0.14-0.14-0.16l-0.74-0.2c-0.07-0.02-0.14,0-0.2,0.06l-0.57,0.49
							l-1.56,1.34c-0.01,0.02-0.02,0.04-0.03,0.05l-0.01,0.05c-0.03,0.1,0.05,0.19,0.15,0.22l0.75,0.22l0,0l0.01,0
							c0.07,0.02,0.14,0,0.2-0.06l1.33-1.17l0.76-0.67C829.09,537.51,829.1,537.44,829.09,537.38"/>
						<path class="st5" d="M825.74,540.28l-1.64-0.45c-0.07-0.02-0.11-0.09-0.09-0.15l1.57-5.79c0.02-0.07,0.09-0.11,0.15-0.09
							l1.64,0.45c0.07,0.02,0.11,0.09,0.09,0.15l-0.14,0.51c-0.02,0.07-0.09,0.11-0.15,0.09l-0.89-0.24
							c-0.07-0.02-0.14,0.02-0.15,0.09l-1.16,4.28c-0.02,0.07,0.02,0.14,0.09,0.15l0.89,0.24c0.07,0.02,0.11,0.09,0.09,0.15
							l-0.14,0.52C825.87,540.26,825.8,540.29,825.74,540.28"/>
						<path class="st5" d="M831.03,535.24l1.64,0.44c0.07,0.02,0.11,0.09,0.09,0.15l-1.57,5.79c-0.02,0.07-0.09,0.11-0.15,0.09
							l-1.64-0.44c-0.07-0.02-0.11-0.09-0.09-0.15l0.14-0.51c0.02-0.07,0.09-0.11,0.15-0.09l0.89,0.24
							c0.07,0.02,0.13-0.02,0.15-0.09l1.16-4.28c0.02-0.07-0.02-0.14-0.09-0.15l-0.89-0.24c-0.07-0.02-0.11-0.09-0.09-0.15
							l0.14-0.52C830.89,535.26,830.96,535.22,831.03,535.24"/>
						<g class="st14">
							<g>
								<defs>
									
										<rect id="SVGID_1_" x="828.81" y="538.68" transform="matrix(0.2616 -0.9652 0.9652 0.2616 94.322 1200.731)" width="6.23" height="0.08"/>
								</defs>
								<clipPath id="SVGID_00000040551557572854244230000011974849202704667815_">
									<use xlink:href="#SVGID_1_"  style="overflow:visible;"/>
								</clipPath>
								<path style="clip-path:url(#SVGID_00000040551557572854244230000011974849202704667815_);fill:#FFFFFF;" d="M831.07,541.72
									L831.07,541.72c0.04-0.01,0.08-0.05,0.1-0.1l1.57-5.78c0.01-0.04,0-0.11-0.03-0.14c0.04,0.02,0.06,0.07,0.05,0.11
									c0,0.01,0,0.02-0.01,0.03l-1.57,5.78C831.17,541.67,831.13,541.71,831.07,541.72"/>
							</g>
						</g>
					</g>
				</g>
				<g>
					<g>
						<g>
							<path class="st7" d="M870.62,564.34c-1.33,0-2.66-0.18-3.96-0.53c-8.04-2.18-12.81-10.5-10.63-18.54
								c1.78-6.57,7.77-11.16,14.58-11.16c1.33,0,2.66,0.18,3.96,0.53c3.9,1.06,7.15,3.57,9.16,7.07c2.01,3.5,2.53,7.58,1.48,11.47
								C883.41,559.75,877.42,564.34,870.62,564.34z"/>
							<path class="st2" d="M870.6,535.78c1.16,0,2.35,0.15,3.52,0.47c7.16,1.94,11.39,9.32,9.45,16.48
								c-1.62,5.98-7.04,9.92-12.96,9.92c-1.16,0-2.35-0.15-3.52-0.47c-7.16-1.94-11.39-9.32-9.45-16.48
								C859.27,539.72,864.68,535.79,870.6,535.78 M870.6,532.43L870.6,532.43c-7.56,0-14.22,5.1-16.2,12.4
								c-1.17,4.33-0.59,8.85,1.64,12.74s5.84,6.68,10.17,7.85c1.44,0.39,2.92,0.59,4.4,0.59c7.56,0,14.22-5.1,16.19-12.4
								c2.42-8.93-2.88-18.17-11.81-20.59C873.56,532.63,872.08,532.43,870.6,532.43L870.6,532.43z"/>
						</g>
						<path class="st5" d="M881.44,554.38c-0.67,2.47-1.99,4.6-3.73,6.24c-3.05,1.9-6.86,2.58-10.62,1.56
							c-7.16-1.94-11.39-9.32-9.45-16.48c0.67-2.46,1.97-4.56,3.69-6.2c3.07-1.92,6.9-2.61,10.67-1.59
							C879.15,539.85,883.38,547.22,881.44,554.38z"/>
					</g>
					<g>
						<path class="st7" d="M877.42,551.07c-0.49,1.81-1.63,3.26-3.11,4.18c-1.62,1.01-3.64,1.37-5.63,0.83
							c-3.79-1.03-6.03-4.94-5.01-8.73c0.35-1.3,1.04-2.42,1.95-3.29c1.74-1.66,4.29-2.39,6.78-1.72
							C876.2,543.36,878.44,547.27,877.42,551.07z"/>
					</g>
					<g id="Group_00000055708319025557947880000003255447916174605956_" transform="translate(44.000000, 143.000000)">
						<g id="Rectangle-Copy_00000001663172901193853960000016337048751885372575_">
							<path class="st16" d="M822.66,406.07c-0.42,0-0.79-0.29-0.9-0.7c-0.13-0.5,0.17-1.01,0.67-1.15l3.1-0.82
								c0.08-0.02,0.16-0.03,0.24-0.03c0.42,0,0.8,0.29,0.9,0.7c0.06,0.24,0.03,0.49-0.1,0.71c-0.12,0.22-0.33,0.37-0.57,0.43
								l-3.1,0.82C822.82,406.06,822.74,406.07,822.66,406.07L822.66,406.07z"/>
							<path class="st7" d="M825.76,403.51c0.35,0,0.68,0.24,0.77,0.59c0.11,0.43-0.14,0.86-0.57,0.97l-3.11,0.82
								c-0.07,0.02-0.14,0.03-0.2,0.03c-0.35,0-0.68-0.24-0.77-0.59c-0.11-0.43,0.14-0.86,0.57-0.97l3.11-0.82
								C825.63,403.52,825.7,403.51,825.76,403.51 M825.76,403.23c-0.09,0-0.19,0.01-0.28,0.04l-3.11,0.82
								c-0.28,0.07-0.51,0.25-0.66,0.5c-0.14,0.25-0.18,0.54-0.11,0.82c0.12,0.47,0.55,0.8,1.04,0.8c0.09,0,0.19-0.01,0.28-0.04
								l3.11-0.82c0.28-0.07,0.51-0.25,0.66-0.5c0.14-0.25,0.18-0.54,0.11-0.82C826.68,403.56,826.25,403.23,825.76,403.23
								L825.76,403.23z"/>
						</g>
						<g id="Rectangle-Copy-2_00000065051570269080665860000002699069111359973033_">
							<path class="st16" d="M824.9,408.35c-0.25,0-0.49-0.1-0.66-0.28l-2.26-2.28c-0.18-0.18-0.27-0.41-0.27-0.67
								c0-0.25,0.1-0.48,0.28-0.66c0.18-0.17,0.41-0.27,0.66-0.27c0.25,0,0.49,0.1,0.66,0.28l2.26,2.28c0.36,0.37,0.36,0.96,0,1.32
								C825.38,408.25,825.14,408.35,824.9,408.35L824.9,408.35z"/>
							<path class="st7" d="M822.63,404.34c0.2,0,0.41,0.08,0.57,0.23l2.26,2.28c0.31,0.31,0.31,0.82,0,1.13
								c-0.16,0.15-0.36,0.23-0.56,0.23c-0.2,0-0.41-0.08-0.57-0.24l-2.26-2.28c-0.31-0.31-0.31-0.82,0-1.13
								C822.22,404.42,822.43,404.34,822.63,404.34 M822.63,404.06c-0.29,0-0.56,0.11-0.76,0.31c-0.2,0.2-0.32,0.47-0.32,0.76
								c0,0.29,0.11,0.56,0.31,0.76l2.26,2.28c0.2,0.2,0.47,0.32,0.76,0.32c0.29,0,0.56-0.11,0.76-0.31c0.2-0.2,0.32-0.47,0.32-0.76
								c0-0.29-0.11-0.56-0.31-0.76l-2.26-2.28C823.19,404.17,822.92,404.06,822.63,404.06L822.63,404.06z"/>
						</g>
						<g id="Rectangle_00000109019666068467252670000006076699769757005730_">
							<path class="st16" d="M827.45,409.07c-0.42,0-0.8-0.29-0.91-0.7c-0.13-0.5,0.17-1.01,0.67-1.15l3.11-0.82
								c0.08-0.02,0.16-0.03,0.24-0.03c0.42,0,0.8,0.29,0.9,0.7c0.06,0.24,0.03,0.49-0.09,0.71s-0.33,0.37-0.57,0.43l-3.1,0.82
								C827.62,409.06,827.54,409.07,827.45,409.07z"/>
							<path class="st7" d="M830.56,406.52c0.35,0,0.68,0.24,0.77,0.59c0.11,0.43-0.14,0.86-0.57,0.97l-3.11,0.82
								c-0.07,0.02-0.14,0.03-0.2,0.03c-0.35,0-0.68-0.24-0.77-0.59c-0.11-0.43,0.14-0.86,0.57-0.97l3.11-0.82
								C830.42,406.52,830.49,406.52,830.56,406.52 M830.56,406.24c-0.09,0-0.19,0.01-0.28,0.04l-3.11,0.82
								c-0.28,0.07-0.51,0.25-0.65,0.5c-0.14,0.25-0.18,0.54-0.11,0.82c0.12,0.47,0.55,0.8,1.04,0.8c0.09,0,0.19-0.01,0.28-0.04
								l3.11-0.82c0.57-0.15,0.92-0.74,0.76-1.32C831.47,406.57,831.05,406.24,830.56,406.24L830.56,406.24z"/>
						</g>
						<g>
							<path class="st16" d="M830.59,408.24c-0.25,0-0.49-0.1-0.67-0.28l-2.26-2.28c-0.36-0.37-0.36-0.96,0-1.32
								c0.18-0.18,0.41-0.27,0.66-0.27c0.25,0,0.49,0.1,0.66,0.28l2.26,2.28c0.36,0.37,0.36,0.96,0,1.32
								C831.07,408.15,830.84,408.24,830.59,408.24z"/>
							<path class="st7" d="M828.32,404.23c0.2,0,0.41,0.08,0.57,0.24l2.26,2.28c0.31,0.31,0.31,0.82,0,1.13
								c-0.16,0.15-0.36,0.23-0.56,0.23c-0.2,0-0.41-0.08-0.57-0.23l-2.26-2.28c-0.31-0.31-0.31-0.82,0-1.13
								C827.92,404.31,828.12,404.23,828.32,404.23 M828.32,403.95L828.32,403.95c-0.29,0-0.56,0.11-0.76,0.31
								c-0.2,0.2-0.32,0.47-0.32,0.76c0,0.29,0.11,0.56,0.31,0.76l2.26,2.28c0.2,0.2,0.47,0.32,0.76,0.32
								c0.29,0,0.56-0.11,0.76-0.31c0.2-0.2,0.32-0.47,0.32-0.76c0-0.29-0.11-0.56-0.31-0.76l-2.26-2.28
								C828.88,404.07,828.61,403.95,828.32,403.95L828.32,403.95z"/>
						</g>
					</g>
				</g>
			</g>
		</g>
	</g>
	<g>
		<g class="st17">
			<text transform="matrix(0.9652 0.2616 -0.2616 0.9652 756.7292 412.0754)"><tspan x="0" y="0" class="st18 st19">game</tspan><tspan x="0" y="53.69" class="st18 st19">fest</tspan></text>
		</g>
		<g>
			<text transform="matrix(0.9652 0.2616 -0.2616 0.9652 753.3753 408.7215)"><tspan x="0" y="0" class="st20 st18 st19">game</tspan><tspan x="0" y="53.69" class="st20 st18 st19">fest</tspan></text>
		</g>
	</g>
</g>
<path class="st0" d="M703.88,589.2c0,0-17.48-46.09-14.26-63.24c3.21-17.15,72.97-72.96,72.97-72.96s19.21,0.97,18.89,29.64
	c-0.24,21.79-17.4,40.21-25.61,47.79c-2.31,2.13-2.45,5.7-0.33,8.01c0,0,70.19,45.25,70.29,74.9
	C825.9,636.5,703.88,589.2,703.88,589.2z"/>
<path class="st21" d="M704.98,519.51c5.75-6.28,36.12-40.43,36.12-40.43l8.93,4.91l1.43-8.37c0,0,13.09-12.6,15.74-11.95
	c2.65,0.66,12.2,9.19,14.28,18.97c0.31-28.67-18.89-29.64-18.89-29.64s-69.76,55.81-72.97,72.96c-1.23,6.55,0.01,16.15,2.01,25.53
	C692.87,547.4,699.77,525.2,704.98,519.51z"/>
<path class="st0" d="M823.17,348.32c-10.86-0.54-18.06,0.96-19.21,8.54c-1.95,12.89-3.22,31.23,4.14,36.33
	c11.7,8.1,43.32,7.6,45.17-1.04c2.02-9.4,3.82-28.57-0.9-36.65C849.89,351.25,839.98,349.16,823.17,348.32z M913.73,379.88
	c-1.98-4.65-11.67-7.94-28.45-10.75c-10.84-1.82-18.25-1.11-20.33,6.53c-3.52,12.99-7.02,31.64-0.25,37.72
	c10.76,9.66,42.57,12.82,45.48,4.17C913.36,408.15,917.49,388.71,913.73,379.88z M963.56,419.95c-0.56-4.6-8.12-9.73-21.92-16.05
	c-8.91-4.08-15.5-5.13-19.18,1.21c-6.26,10.79-13.89,26.64-9.54,33.6c6.91,11.07,33.61,21.1,38.27,14.04
	C956.24,445.08,964.62,428.68,963.56,419.95z M761.78,336.16c-10.64-0.52-17.71,1.17-18.88,9.4c-2,14-3.37,33.9,3.81,39.39
	c11.41,8.71,42.4,7.96,44.28-1.44c2.04-10.22,3.94-31.03-0.64-39.76C787.94,339.16,778.25,336.96,761.78,336.16z"/>
<g>
	<path class="st21" d="M745.78,352.56c1.18-8.23,8.25-9.92,18.88-9.4c14.74,0.72,24.01,2.56,27.53,6.24
		c-0.44-2.17-1.03-4.1-1.84-5.64c-2.41-4.6-12.1-6.79-28.57-7.59c-10.64-0.52-17.71,1.17-18.88,9.4
		c-1.84,12.87-3.12,30.71,2.26,37.77C743.33,374.72,744.4,362.24,745.78,352.56z"/>
	<path class="st21" d="M806.84,363.86c1.15-7.58,8.35-9.09,19.21-8.54c15.52,0.78,25.07,2.64,28.42,6.26
		c-0.47-2.36-1.15-4.45-2.1-6.08c-2.49-4.25-12.39-6.34-29.2-7.18c-10.86-0.54-18.06,0.96-19.21,8.54
		c-1.76,11.64-2.95,27.68,2.26,34.45C804.56,383.42,805.54,372.44,806.84,363.86z"/>
	<path class="st21" d="M925.35,412.11c3.68-6.34,10.26-5.3,19.18-1.21c9.3,4.26,15.7,7.97,19.1,11.35c0.03-0.81,0.03-1.59-0.06-2.3
		c-0.56-4.6-8.12-9.73-21.92-16.05c-8.91-4.08-15.5-5.13-19.18,1.21c-6.26,10.79-13.89,26.64-9.54,33.6c0.45,0.73,1,1.45,1.62,2.16
		C914.31,432.91,920.28,420.85,925.35,412.11z"/>
	<path class="st21" d="M867.84,382.66c2.07-7.64,9.49-8.35,20.33-6.53c14,2.35,22.99,5.04,26.76,8.56c-0.24-1.8-0.61-3.44-1.19-4.81
		c-1.98-4.65-11.67-7.94-28.45-10.75c-10.84-1.82-18.25-1.11-20.33,6.53c-3.41,12.58-6.77,30.43-0.83,37.07
		C862.79,404.31,865.3,392.02,867.84,382.66z"/>
</g>
<path d="M816.76,606.22c0,0-8.4-41.11-62.28-64.73l-0.76-0.27l-0.55-0.6c-3.32-3.61-3.08-9.24,0.52-12.56
	c7.31-6.75,24.34-24.68,24.57-45.45c0.23-21.36-11.12-25.45-14.74-26.21c-27.66,22.23-68.56,58.6-70.73,70.16
	c-2.5,13.34,11.63,52.66,16.1,64.54l-9.1-3.28c-0.68-1.81-16.67-44.62-13.33-62.45c3.34-17.81,66.89-69.09,74.12-74.88l0.95-0.77
	l1.22,0.06c0.22,0.01,22.3,1.49,21.96,32.89c-0.25,23.28-18.72,42.81-26.65,50.12c-0.83,0.77-1.01,1.98-0.51,2.94
	c3.63,1.37,16.9,6.69,29.22,15.9C806.13,566.13,829.52,592.64,816.76,606.22z"/>
<path d="M833,402.17c-9.82,0-20.54-2.04-26.74-6.33c-6.89-4.77-8.74-18.05-5.49-39.46l0,0c1.87-12.32,16.36-11.59,22.56-11.28
	c19.54,0.98,28.76,3.52,31.83,8.77c5.78,9.89,2.87,31.47,1.27,38.95c-0.63,2.96-3.01,5.27-7.07,6.88
	C845.24,401.33,839.3,402.17,833,402.17z M819.59,351.45c-10.59,0-12.01,3.01-12.44,5.9l0,0c-2.68,17.71-1.64,30.12,2.79,33.19
	c8.28,5.74,28.21,6.66,37.05,3.16c2.29-0.91,3.05-1.83,3.14-2.23c2.12-9.86,3.41-27.59-0.53-34.34c-0.96-1.64-5.68-4.54-26.58-5.59
	C821.77,351.48,820.64,351.45,819.59,351.45z"/>
<path d="M895.72,425.84c-11.48,0-25.99-3.61-33.17-10.06c-6.31-5.67-6.55-19.45-0.71-40.96c3.34-12.33,17.8-9.9,23.97-8.87
	c19.5,3.27,28.45,6.94,30.88,12.67c4.58,10.76-0.94,32.5-3.45,39.96c-1,2.98-3.74,5.07-8.13,6.23
	C902.46,425.5,899.23,425.84,895.72,425.84z M876.88,371.54c-6.76,0-8.14,2.49-8.81,4.97l0,0c-4.86,17.9-5.31,30.79-1.21,34.48
	c7.5,6.73,27.3,10.03,36.61,7.59c2.41-0.63,3.48-1.5,3.66-2.05c3.33-9.89,6.79-27.97,3.63-35.38c-0.77-1.8-5.16-5.34-26.02-8.83
	C881.53,371.77,878.95,371.54,876.88,371.54z"/>
<path d="M944.91,458.34c-0.09,0-0.17,0-0.26,0c-10.56-0.13-28.54-8.42-34.47-17.91c-4.1-6.57-0.91-19,9.49-36.93l0,0
	c6.05-10.43,18.14-4.89,23.31-2.53c16.18,7.41,23.07,12.79,23.78,18.59c1.3,10.69-8.86,28.87-12.88,34.98
	C952.73,456.28,950.24,458.34,944.91,458.34z M930.14,403.82c-2.83,0-4.01,1.38-4.89,2.91l0,0c-8.59,14.82-12.18,26.14-9.6,30.28
	c4.71,7.53,20.37,14.77,29.08,14.88c2.45-0.04,3.53-0.55,3.76-0.9c5.31-8.05,12.75-23.36,11.87-30.64
	c-0.21-1.71-3.09-5.74-20.06-13.51C935.5,404.64,932.33,403.82,930.14,403.82z"/>
<path d="M770.63,394.28c-9.53,0-19.85-2.16-25.88-6.76c-6.65-5.08-8.34-19.34-5.05-42.41l0,0c1.88-13.15,16.14-12.47,22.23-12.16
	c19.23,0.94,28.29,3.63,31.27,9.32c5.53,10.56,2.55,33.82,0.94,41.89c-0.47,2.34-2.25,5.58-8.09,7.79
	C781.98,393.47,776.45,394.28,770.63,394.28z M746.09,346.02c-2.77,19.42-1.81,33.02,2.58,36.37c7.77,5.94,26.11,6.91,35.11,3.51
	c2.33-0.88,3.84-2,4.04-3.01c2.16-10.8,3.55-30.23-0.33-37.63c-0.93-1.77-5.52-4.88-25.87-5.87
	C749.55,338.78,746.74,341.49,746.09,346.02L746.09,346.02z"/>
<path d="M774.17,374.32c-7.55,0-15.69-1.17-20.55-2c-4.14-0.71-7.15-4.28-7.15-8.49l3.23-15.6l3.22,15.6c0,1.06,0.75,1.96,1.79,2.14
	c6.03,1.04,17.36,2.62,25.44,1.57c1.11-0.14,1.92-1.21,1.8-2.37l-1.17-11.6l-23.97-8.55l29.85,2.59l1.72,16.91
	c0.46,4.61-2.85,8.83-7.39,9.42C778.85,374.2,776.54,374.32,774.17,374.32z"/>
<path d="M835.62,388.25c-7.55,0-15.69-1.17-20.54-2c-4.14-0.71-7.15-4.28-7.15-8.49l1.92-16.5l4.53,16.5c0,1.06,0.75,1.95,1.79,2.13
	c6.03,1.04,17.35,2.62,25.44,1.57c1.11-0.15,1.92-1.21,1.8-2.37l-1.17-11.6l-23.97-8.55l29.85,2.59l1.72,16.92
	c0.46,4.61-2.85,8.83-7.39,9.42C840.3,388.14,837.99,388.25,835.62,388.25z"/>
<path d="M896.46,409.46c-6.05,0-13.21-1.16-21.78-3.53c-3.9-1.08-6.46-4.89-6.09-9.07l3.02-11.52l1.48,12.5
	c-0.1,1.07,2.41,1.62,3.3,1.87c8.91,2.46,16.06,3.54,21.85,3.25c0.97-0.05,1.79-1.07,1.78-2.24l0-0.22l1.42-11.06l-26.51-10.44
	l33.69,5.2l-2.15,16.71c-0.09,4.57-3.53,8.28-7.93,8.48C897.86,409.44,897.17,409.46,896.46,409.46z"/>
<path d="M943.85,443.09c-0.59,0-1.18-0.07-1.76-0.22c-5.8-1.46-12.29-4.64-19.85-9.75c-3.15-2.12-4.27-6.45-2.67-10.3l9.91-14.06
	l-3.96,16.55c-0.45,1.08-0.18,2.12,0.32,2.46c6.93,4.68,12.76,7.57,17.82,8.84c0.66,0.16,1.68-0.58,2.06-1.77l0.14-0.36l4.57-9.97
	l-14.92-15.41l23.3,12.62l-7.02,15.29C950.53,440.68,947.27,443.09,943.85,443.09z"/>
<path d="M753.35,493.17l-20.93-13.52l3.5-5.42l17.26,11.15c3.73-2.88,12.45-10.36,14.41-18.46c0,0,1.54,13.12-12.47,25.05
	L753.35,493.17z"/>
<path d="M728.19,547.99c-3.46,0-5.72-0.52-5.98-0.58c0,0,17.16-2.85,30-17.44l4.84,4.26C746.75,545.95,735.08,547.99,728.19,547.99z
	"/>
<path d="M800.18,638.97c0,0,10.61-6.8,12.75-8.93c12.9-12.89,9.05-17.7,10.71-27.32c0,0,3.75,6.36,1.6,15.63
	C820.24,639.89,801.23,638.33,800.18,638.97z"/>
</svg>
