<?xml version="1.0" encoding="utf-8"?>
<!-- Generator: Adobe Illustrator 26.2.1, SVG Export Plug-In . SVG Version: 6.00 Build 0)  -->
<svg version="1.1" id="Layer_1" xmlns="http://www.w3.org/2000/svg" xmlns:xlink="http://www.w3.org/1999/xlink" x="0px" y="0px"
	 viewBox="0 0 1280 1024" style="enable-background:new 0 0 1280 1024;" xml:space="preserve">
<style type="text/css">
	.st0{fill:#FF624D;}
	.st1{fill:#FF4C4E;}
	.st2{fill:#FFD436;}
	.st3{fill:#FFB50A;}
	.st4{fill:#B680C3;}
	.st5{fill:#E0B2E6;}
	.st6{fill:none;stroke:#3A0078;stroke-width:1.3595;stroke-miterlimit:10;}
</style>
<g>
	<g id="XMLID_00000000215555423004332420000010823336264578006191_">
		<g>
			<polygon class="st0" points="632.03,541.08 629.41,544.61 613.96,533.11 616.59,529.59 			"/>
			<polygon class="st0" points="626.78,548.13 624.16,551.65 608.72,540.17 611.34,536.63 			"/>
			<polygon class="st0" points="621.54,555.19 618.93,558.71 603.47,547.21 606.09,543.69 			"/>
			<path class="st1" d="M610.2,554.37c-3.06-2.27-6.78-3.02-10.24-2.37l-0.01-0.07l3.52-4.73l15.46,11.5l-3.52,4.73h-0.01
				C615.01,559.96,613.23,556.63,610.2,554.37z"/>
			<polygon class="st1" points="624.16,551.65 621.54,555.19 606.09,543.69 608.72,540.17 			"/>
			
				<rect x="618.18" y="530.99" transform="matrix(0.5975 -0.8019 0.8019 0.5975 -183.8117 715.0384)" class="st1" width="4.39" height="19.26"/>
			<polygon class="st1" points="618.41,527.13 633.85,538.63 632.03,541.08 616.59,529.59 			"/>
			<path class="st2" d="M594.98,559.36c3.03-4.08,8.81-4.94,12.9-1.89c4.09,3.05,4.94,8.82,1.89,12.9c-3.03,4.09-8.81,4.94-12.9,1.9
				C592.78,569.23,591.94,563.46,594.98,559.36z"/>
			<path class="st3" d="M594.98,559.36c3.03-4.08,8.81-4.94,12.9-1.89c4.09,3.05,4.94,8.82,1.89,12.9c-3.03,4.09-8.81,4.94-12.9,1.9
				C592.78,569.23,591.94,563.46,594.98,559.36z M591.87,557.05c-4.31,5.81-3.11,14.02,2.69,18.33c5.81,4.32,14,3.11,18.33-2.69
				c2.05-2.76,2.86-6.06,2.5-9.24c-0.38-3.48-2.16-6.81-5.19-9.07c-3.06-2.27-6.78-3.02-10.24-2.37
				C596.83,552.59,593.91,554.31,591.87,557.05z"/>
			<path class="st3" d="M642.13,538.3c1.09,0.8,1.31,2.32,0.5,3.41l-0.2,0.26c-0.8,1.09-2.32,1.31-3.4,0.5l-5.18-3.85l-15.44-11.5
				l-5.1-3.79c-1.09-0.8-1.31-2.32-0.5-3.41l0.19-0.26c0.8-1.09,2.34-1.31,3.41-0.5l5.1,3.79l7.74,5.75l7.72,5.75L642.13,538.3z"/>
			<path class="st4" d="M691.28,461.48l-10.82,14.53l-2.19-1.63c-0.05,0.01-0.12,0.03-0.18,0.04l-0.69-2.8
				c-0.73,0.18-1.48,0.31-2.23,0.42l-2.42-1.81l19.31-25.94L691.28,461.48z"/>
			<path class="st4" d="M678.09,474.42c0.05-0.01,0.12-0.03,0.18-0.04l2.19,1.63l-43.49,58.45l-7.72-5.75l43.51-58.47l2.42,1.81
				c0.75-0.11,1.5-0.24,2.23-0.42L678.09,474.42z"/>
			<polygon class="st5" points="621.51,522.95 675.92,449.85 692.06,444.29 672.75,470.23 629.24,528.71 			"/>
		</g>
		<g>
			<path class="st6" d="M636.97,534.46l5.17,3.85c1.09,0.8,1.31,2.32,0.5,3.41l-0.2,0.26c-0.8,1.09-2.32,1.31-3.4,0.5l-5.18-3.85
				l-15.44-11.5l-5.1-3.79c-1.09-0.8-1.31-2.32-0.5-3.41l0.19-0.26c0.8-1.09,2.34-1.31,3.41-0.5l5.1,3.79l7.74,5.75L636.97,534.46z"
				/>
			<polyline class="st6" points="618.41,527.13 616.59,529.59 613.96,533.11 611.34,536.63 608.72,540.17 606.09,543.69 
				603.47,547.21 599.95,551.94 			"/>
			<polyline class="st6" points="633.85,538.63 632.03,541.08 629.41,544.61 626.78,548.13 624.16,551.65 621.54,555.19 
				618.93,558.71 615.4,563.44 			"/>
			<path class="st6" d="M615.39,563.44c0.35,3.18-0.45,6.49-2.5,9.24c-4.32,5.81-12.52,7.02-18.33,2.69
				c-5.81-4.31-7-12.52-2.69-18.33c2.04-2.75,4.96-4.46,8.09-5.04c3.45-0.65,7.18,0.1,10.24,2.37
				C613.23,556.63,615.01,559.96,615.39,563.44z"/>
			<path class="st6" d="M609.78,570.38c-3.03,4.09-8.81,4.94-12.9,1.9c-4.09-3.05-4.94-8.82-1.89-12.92
				c3.03-4.08,8.81-4.94,12.9-1.89C611.98,560.52,612.82,566.3,609.78,570.38z"/>
			<line class="st6" x1="616.59" y1="529.59" x2="632.03" y2="541.08"/>
			<line class="st6" x1="613.96" y1="533.11" x2="629.41" y2="544.61"/>
			<line class="st6" x1="611.34" y1="536.63" x2="626.78" y2="548.13"/>
			<line class="st6" x1="608.72" y1="540.17" x2="624.16" y2="551.65"/>
			<line class="st6" x1="606.09" y1="543.69" x2="621.54" y2="555.19"/>
			<line class="st6" x1="603.47" y1="547.21" x2="618.93" y2="558.71"/>
			<polyline class="st6" points="621.51,522.95 675.92,449.85 692.06,444.29 691.28,461.48 680.46,476.01 636.97,534.46 			"/>
			<polyline class="st6" points="692.06,444.29 672.75,470.23 629.24,528.71 			"/>
			<path class="st6" d="M599.57,560.02c-1.35,1.03-2.23,2.64-2.41,4.31c-0.18,1.69,0.38,3.44,1.48,4.72"/>
			<path class="st6" d="M675.17,472.04c0.75-0.11,1.5-0.24,2.23-0.42c0.73-0.18,1.45-0.39,2.18-0.63"/>
			<path class="st6" d="M673.88,475.47c1.41-0.35,2.81-0.69,4.21-1.05c0.05-0.01,0.12-0.03,0.18-0.04"/>
			<path class="st6" d="M660.58,476.12c-0.23,0.31-0.46,0.63-0.69,0.92l-29.16,39.21"/>
		</g>
	</g>
</g>
</svg>
