<?xml version="1.0" encoding="utf-8"?>
<!-- Generator: Adobe Illustrator 26.2.1, SVG Export Plug-In . SVG Version: 6.00 Build 0)  -->
<svg version="1.1" id="Layer_1" xmlns="http://www.w3.org/2000/svg" xmlns:xlink="http://www.w3.org/1999/xlink" x="0px" y="0px"
	 viewBox="0 0 1280 1024" style="enable-background:new 0 0 1280 1024;" xml:space="preserve">
<style type="text/css">
	.st0{fill:#000083;}
	.st1{clip-path:url(#SVGID_00000158710957408477192000000006447390724627770507_);fill:#000083;}
	.st2{clip-path:url(#SVGID_00000031926295202066095520000006700668327957495940_);fill:#000083;}
</style>
<g>
	<path class="st0" d="M419.91,578.67V492.8c0-2.59-2.1-4.69-4.69-4.69h-19.92c-2.59,0-4.7,2.19-4.69,4.69V535l29.1,43.13
		C419.8,578.26,419.86,578.47,419.91,578.67"/>
	<path class="st0" d="M336.46,535.65V492.8c0-2.59-2.1-4.69-4.69-4.69h-19.92c-2.59,0-4.69,2.1-4.69,4.69v86.86
		c0.08-0.51,0.21-1.02,0.42-1.53L336.46,535.65z"/>
	<path class="st0" d="M416.97,583.65l-29.11-43.13l-9.93-14.72c0.67,1.42,0.74,3.15-0.12,4.73l-13.99,21.16l24.47,36.87
		c0.08,0.15,0.17,0.27,0.26,0.4c0.07,0.11,0.14,0.23,0.21,0.33c0.67,0.94,1.67,1.62,2.84,1.86c0.02,0,0.04,0.01,0.06,0.01
		c0.24,0.05,0.48,0.06,0.73,0.07c0.14,0.01,0.27,0.02,0.42,0.02h19.63c0.51,0,0.94-0.1,1.36-0.22c0.25-0.08,0.5-0.17,0.73-0.28
		c0.21-0.1,0.42-0.21,0.6-0.34c0.17-0.12,0.33-0.26,0.49-0.4c0.76-0.74,1.22-1.72,1.46-2.71c0.04-0.24,0.08-0.48,0.08-0.73v-2.38
		C417.1,583.99,417.04,583.79,416.97,583.65"/>
	<path class="st0" d="M377.93,525.81c-0.79-1.66-2.41-2.89-4.52-2.89l-19.1,0.01c-1.89,0-3.41,1-4.52,2.69l-10.56,15.55
		l-28.87,42.48c-0.21,0.51-0.34,1.02-0.42,1.53v1.39c0,2.59,2.49,4.3,5.08,4.3l19.47,0.39h0.07h0.36c1.89,0,3.44-1,4.53-2.69
		l24.39-36.87l13.99-21.16C378.67,528.96,378.6,527.23,377.93,525.81"/>
	<path class="st0" d="M315.9,617.79h-42.61c-1.72,0-3.12-1.4-3.12-3.13l0-149.97c0-1.73,1.4-3.13,3.13-3.13h42.61
		c1.72,0,3.13,1.4,3.13,3.13v13.28c0,1.72-1.4,3.12-3.13,3.12h-23.09c-1.72,0-3.13,1.4-3.13,3.13v110.81c0,1.72,1.4,3.12,3.13,3.12
		h23.09c1.72,0,3.13,1.4,3.13,3.12v13.39C319.03,616.39,317.63,617.79,315.9,617.79"/>
	<path class="st0" d="M410.67,461.57h42.42c1.72,0,3.11,1.4,3.11,3.12l0,149.97c0,1.72-1.39,3.13-3.11,3.13h-42.42
		c-1.72,0-3.11-1.4-3.11-3.13v-13.28c0-1.72,1.39-3.13,3.11-3.13h22.99c1.72,0,3.11-1.4,3.11-3.12V484.33
		c0-1.72-1.39-3.12-3.11-3.12h-22.99c-1.72,0-3.11-1.4-3.11-3.13v-13.39C407.56,462.97,408.95,461.57,410.67,461.57"/>
	<g>
		<g>
			<defs>
				<rect id="SVGID_1_" x="454.09" y="461.75" width="2.12" height="155.87"/>
			</defs>
			<use xlink:href="#SVGID_1_"  style="overflow:visible;fill:#000083;"/>
			<clipPath id="SVGID_00000150788400010729829600000018225363130245449663_">
				<use xlink:href="#SVGID_1_"  style="overflow:visible;"/>
			</clipPath>
			<path style="clip-path:url(#SVGID_00000150788400010729829600000018225363130245449663_);fill:#000083;" d="M454.09,617.63
				L454.09,617.63c1.01-0.47,1.67-1.84,1.67-2.96l0.02-149.82c0-1.15-0.67-2.63-1.66-3.09c1.06,0.34,1.81,1.26,2.04,2.36
				c0.05,0.24,0.05,0.48,0.05,0.73l0,149.82C456.2,615.96,455.45,617.12,454.09,617.63"/>
		</g>
	</g>
	<g>
		<g>
			<defs>
				<rect id="SVGID_00000007398512721494744230000010983391174415786937_" x="408.45" y="616.82" width="46.9" height="0.97"/>
			</defs>
			<use xlink:href="#SVGID_00000007398512721494744230000010983391174415786937_"  style="overflow:visible;fill:#000083;"/>
			<clipPath id="SVGID_00000035490679204446448460000008794586532895149729_">
				<use xlink:href="#SVGID_00000007398512721494744230000010983391174415786937_"  style="overflow:visible;"/>
			</clipPath>
			<path style="clip-path:url(#SVGID_00000035490679204446448460000008794586532895149729_);fill:#000083;" d="M453.55,617.76
				c-0.1,0.02-0.39,0.03-0.5,0.03l-41.36-0.01h-0.35c-0.57,0.01-1,0.02-1.38-0.07c-0.33-0.07-0.77-0.25-1.14-0.54
				c-0.03-0.02-0.12-0.1-0.21-0.18c-0.08-0.07-0.15-0.13-0.15-0.13s0.82,0.39,1.17,0.46c0.75,0.13,1.17,0.09,1.71,0.09l0.35,0
				l41.46,0.04c0.61,0,1.7-0.27,2.21-0.61l-0.21,0.19c-0.32,0.3-0.76,0.54-1.23,0.67C453.92,617.68,453.65,617.74,453.55,617.76"/>
		</g>
	</g>
	<g>
		<polygon class="st0" points="475.38,476.95 484.28,476.95 491.2,502.99 492.2,507.79 492.69,507.79 494,502.99 500.42,482.93 
			508.27,482.93 514.74,502.99 515.99,507.72 516.49,507.72 517.43,502.99 523.91,476.95 532.82,476.95 520.97,521.56 
			512.87,521.56 505.9,500.06 504.59,495.14 504.1,495.14 502.79,500.06 495.8,521.56 487.71,521.56 		"/>
		<path class="st0" d="M548.32,490.04c2.36,0,4.53,0.4,6.5,1.21c1.98,0.81,3.68,1.94,5.12,3.37c1.43,1.43,2.55,3.14,3.36,5.14
			c0.81,1.99,1.22,4.17,1.22,6.54s-0.41,4.55-1.22,6.54c-0.81,2-1.93,3.71-3.36,5.14c-1.44,1.44-3.13,2.56-5.12,3.36
			c-1.97,0.82-4.14,1.22-6.5,1.22c-2.36,0-4.54-0.4-6.51-1.22c-1.98-0.8-3.68-1.92-5.11-3.36c-1.44-1.43-2.56-3.14-3.36-5.14
			c-0.81-1.99-1.22-4.17-1.22-6.54s0.41-4.55,1.22-6.54c0.8-2,1.92-3.71,3.36-5.14c1.43-1.43,3.13-2.56,5.11-3.37
			C543.78,490.44,545.96,490.04,548.32,490.04 M548.32,515.01c1.04,0,2.04-0.2,3.02-0.59c0.97-0.39,1.84-0.97,2.58-1.72
			c0.75-0.74,1.35-1.65,1.78-2.74c0.43-1.07,0.65-2.3,0.65-3.67c0-1.37-0.22-2.6-0.65-3.68c-0.43-1.08-1.03-1.99-1.78-2.74
			c-0.74-0.75-1.61-1.32-2.58-1.71c-0.98-0.39-1.98-0.6-3.02-0.6c-1.09,0-2.1,0.2-3.05,0.6c-0.96,0.39-1.82,0.96-2.56,1.71
			c-0.75,0.75-1.34,1.67-1.78,2.74c-0.43,1.08-0.65,2.31-0.65,3.68c0,1.37,0.22,2.6,0.65,3.67c0.44,1.09,1.03,2,1.78,2.74
			c0.74,0.75,1.6,1.32,2.56,1.72C546.23,514.82,547.23,515.01,548.32,515.01"/>
		<path class="st0" d="M569.12,491.03h7.67v3.99h0.5c0.95-1.5,2.26-2.7,3.89-3.62c1.64-0.91,3.46-1.36,5.45-1.36
			c2.32,0,4.28,0.54,5.86,1.61c1.58,1.08,2.69,2.41,3.36,3.99c0.95-1.54,2.3-2.85,4.05-3.96c1.75-1.1,3.86-1.64,6.35-1.64
			c1.88,0,3.5,0.3,4.87,0.9c1.37,0.6,2.5,1.44,3.4,2.52c0.89,1.07,1.56,2.38,2.02,3.89c0.45,1.52,0.68,3.17,0.68,4.96v19.25h-8.16
			V503.8c0-4.15-1.7-6.23-5.1-6.23c-1.09,0-2.04,0.24-2.87,0.72c-0.84,0.48-1.53,1.12-2.1,1.93c-0.55,0.81-1,1.77-1.31,2.9
			c-0.3,1.12-0.45,2.32-0.45,3.61v14.83h-8.16V503.8c0-4.15-1.79-6.23-5.37-6.23c-1.04,0-1.95,0.24-2.74,0.72
			c-0.79,0.48-1.45,1.12-1.99,1.93c-0.55,0.81-0.95,1.77-1.25,2.9c-0.29,1.12-0.43,2.32-0.43,3.61v14.83h-8.17V491.03z"/>
		<path class="st0" d="M652.85,514.2c-1.41,2.5-3.31,4.51-5.69,6.05c-2.4,1.54-5.31,2.31-8.76,2.31c-2.32,0-4.47-0.41-6.45-1.22
			c-1.98-0.81-3.69-1.94-5.15-3.4c-1.45-1.45-2.58-3.16-3.38-5.14c-0.82-1.97-1.22-4.14-1.22-6.51c0-2.19,0.39-4.28,1.18-6.26
			c0.79-1.97,1.88-3.69,3.3-5.17c1.42-1.48,3.09-2.65,5.03-3.52c1.92-0.87,4.05-1.3,6.37-1.3c2.46,0,4.63,0.4,6.55,1.21
			c1.92,0.81,3.5,1.93,4.79,3.36c1.29,1.44,2.26,3.13,2.93,5.08c0.67,1.95,1,4.07,1,6.35v0.75c-0.04,0.25-0.06,0.48-0.06,0.69
			c-0.05,0.2-0.07,0.43-0.07,0.68h-22.99c0.17,1.25,0.51,2.32,1.03,3.21c0.52,0.89,1.16,1.64,1.93,2.24
			c0.76,0.61,1.61,1.04,2.52,1.31c0.92,0.27,1.85,0.4,2.81,0.4c1.87,0,3.41-0.42,4.64-1.27s2.19-1.92,2.9-3.21L652.85,514.2z
			 M645.44,502.37c-0.05-0.54-0.22-1.14-0.53-1.81c-0.31-0.67-0.77-1.29-1.37-1.87c-0.61-0.58-1.35-1.05-2.25-1.43
			s-1.97-0.56-3.21-0.56c-1.74,0-3.28,0.5-4.6,1.49c-1.33,1-2.27,2.39-2.81,4.18H645.44z"/>
		<path class="st0" d="M666.25,495.02h0.5c0.95-1.54,2.23-2.75,3.85-3.64c1.63-0.9,3.47-1.34,5.56-1.34c1.91,0,3.58,0.3,5.05,0.93
			c1.45,0.62,2.64,1.51,3.57,2.64c0.94,1.15,1.64,2.52,2.12,4.12s0.71,3.38,0.71,5.33v18.5h-8.16v-17.51c0-2.2-0.48-3.83-1.46-4.89
			c-0.98-1.06-2.4-1.59-4.27-1.59c-1.12,0-2.1,0.24-2.96,0.72c-0.86,0.48-1.57,1.12-2.17,1.93c-0.61,0.81-1.06,1.76-1.37,2.87
			c-0.31,1.1-0.47,2.27-0.47,3.52v14.95h-8.17v-30.53h7.67V495.02z"/>
		<polygon class="st0" points="716.01,521.56 716.01,484.93 703.56,484.93 703.56,476.95 736.88,476.95 736.88,484.93 
			724.43,484.93 724.43,521.56 		"/>
		<path class="st0" d="M765.79,514.2c-1.41,2.5-3.31,4.51-5.69,6.05c-2.4,1.54-5.31,2.31-8.76,2.31c-2.32,0-4.47-0.41-6.45-1.22
			c-1.98-0.81-3.69-1.94-5.15-3.4c-1.45-1.45-2.58-3.16-3.38-5.14c-0.82-1.97-1.22-4.14-1.22-6.51c0-2.19,0.39-4.28,1.18-6.26
			c0.79-1.97,1.88-3.69,3.3-5.17c1.42-1.48,3.09-2.65,5.03-3.52c1.92-0.87,4.05-1.3,6.37-1.3c2.46,0,4.63,0.4,6.55,1.21
			c1.91,0.81,3.5,1.93,4.78,3.36c1.29,1.44,2.26,3.13,2.93,5.08c0.67,1.95,1,4.07,1,6.35v0.75c-0.04,0.25-0.06,0.48-0.06,0.69
			c-0.05,0.2-0.07,0.43-0.07,0.68h-22.99c0.17,1.25,0.51,2.32,1.03,3.21c0.52,0.89,1.16,1.64,1.93,2.24
			c0.76,0.61,1.61,1.04,2.53,1.31c0.92,0.27,1.85,0.4,2.8,0.4c1.87,0,3.42-0.42,4.64-1.27c1.23-0.85,2.19-1.92,2.9-3.21
			L765.79,514.2z M758.38,502.37c-0.05-0.54-0.22-1.14-0.53-1.81c-0.31-0.67-0.77-1.29-1.37-1.87c-0.61-0.58-1.35-1.05-2.25-1.43
			c-0.89-0.38-1.96-0.56-3.21-0.56c-1.74,0-3.28,0.5-4.6,1.49c-1.33,1-2.27,2.39-2.81,4.18H758.38z"/>
		<path class="st0" d="M800.8,513.77c-1.33,2.57-3.19,4.69-5.58,6.32c-2.38,1.64-5.37,2.47-8.93,2.47c-2.36,0-4.54-0.41-6.51-1.22
			c-1.98-0.81-3.69-1.94-5.11-3.4c-1.44-1.45-2.56-3.16-3.36-5.13c-0.82-1.98-1.22-4.15-1.22-6.52c0-2.36,0.4-4.54,1.22-6.54
			c0.8-1.99,1.92-3.7,3.36-5.14c1.42-1.43,3.13-2.55,5.11-3.36c1.97-0.81,4.15-1.21,6.51-1.21c3.53,0,6.49,0.8,8.91,2.42
			c2.4,1.62,4.17,3.72,5.29,6.3l-7.48,3.11c-0.7-1.41-1.6-2.48-2.71-3.21c-1.1-0.73-2.48-1.09-4.15-1.09
			c-1.07,0-2.09,0.21-3.04,0.62c-0.95,0.42-1.79,1-2.53,1.75c-0.73,0.74-1.29,1.66-1.71,2.74c-0.41,1.08-0.62,2.29-0.62,3.61
			c0,1.33,0.21,2.54,0.62,3.62c0.42,1.07,0.98,1.99,1.71,2.74c0.73,0.75,1.57,1.32,2.53,1.75c0.95,0.41,1.97,0.62,3.04,0.62
			c1.71,0,3.15-0.39,4.34-1.16c1.19-0.76,2.13-1.88,2.84-3.33L800.8,513.77z"/>
		<path class="st0" d="M805.78,476.95h8.17v12.52l-0.5,5.55h0.5c0.86-1.45,2.12-2.65,3.77-3.59c1.63-0.93,3.47-1.39,5.51-1.39
			c3.94,0,6.86,1.16,8.75,3.48c1.88,2.32,2.83,5.5,2.83,9.53v18.51h-8.16v-17.51c0-2.12-0.5-3.72-1.48-4.83
			c-1-1.1-2.4-1.65-4.18-1.65c-1.13,0-2.12,0.23-3,0.72c-0.87,0.48-1.61,1.13-2.21,1.96c-0.6,0.83-1.05,1.79-1.36,2.89
			c-0.31,1.11-0.47,2.28-0.47,3.53v14.89h-8.17V476.95z"/>
		<path class="st0" d="M841.53,491.03h7.67v3.99h0.49c0.95-1.5,2.26-2.7,3.9-3.62c1.63-0.91,3.46-1.36,5.45-1.36
			c2.32,0,4.28,0.54,5.86,1.61c1.57,1.08,2.69,2.41,3.36,3.99c0.95-1.54,2.3-2.85,4.04-3.96c1.75-1.1,3.87-1.64,6.35-1.64
			c1.88,0,3.5,0.3,4.87,0.9c1.37,0.6,2.51,1.44,3.4,2.52c0.89,1.07,1.57,2.38,2.03,3.89c0.45,1.52,0.68,3.17,0.68,4.96v19.25h-8.17
			V503.8c0-4.15-1.7-6.23-5.1-6.23c-1.08,0-2.04,0.24-2.86,0.72c-0.84,0.48-1.53,1.12-2.1,1.93c-0.56,0.81-1,1.77-1.31,2.9
			c-0.31,1.12-0.46,2.32-0.46,3.61v14.83h-8.16V503.8c0-4.15-1.79-6.23-5.36-6.23c-1.04,0-1.95,0.24-2.74,0.72
			c-0.79,0.48-1.45,1.12-1.99,1.93c-0.55,0.81-0.96,1.77-1.25,2.9c-0.29,1.12-0.44,2.32-0.44,3.61v14.83h-8.16V491.03z"/>
		<path class="st0" d="M914.85,518.31h-0.49c-0.95,1.17-2.11,2.16-3.45,3c-1.35,0.83-3.1,1.25-5.21,1.25
			c-1.58,0-3.07-0.26-4.46-0.78c-1.39-0.52-2.61-1.24-3.64-2.16c-1.04-0.91-1.85-2.01-2.43-3.3c-0.58-1.29-0.87-2.69-0.87-4.23
			c0-1.57,0.31-3,0.93-4.27c0.63-1.26,1.49-2.35,2.62-3.27c1.12-0.91,2.44-1.6,3.95-2.09c1.52-0.48,3.16-0.71,4.96-0.71
			c1.99,0,3.63,0.16,4.92,0.47c1.29,0.3,2.35,0.63,3.17,0.95v-0.93c0-1.61-0.64-2.95-1.93-4.02c-1.29-1.05-2.88-1.58-4.79-1.58
			c-2.82,0-5.21,1.18-7.17,3.54l-5.91-4.04c3.24-4.07,7.66-6.1,13.27-6.1c4.73,0,8.34,1.11,10.83,3.33
			c2.49,2.22,3.74,5.51,3.74,9.87v18.32h-8.04V518.31z M914.85,509.16c-0.95-0.45-1.94-0.82-2.95-1.09c-1.01-0.27-2.13-0.4-3.34-0.4
			c-1.94,0-3.45,0.42-4.52,1.27c-1.05,0.85-1.58,1.9-1.58,3.15c0,1.24,0.51,2.24,1.52,2.99c1.02,0.74,2.19,1.12,3.52,1.12
			c1.08,0,2.08-0.2,3-0.59c0.91-0.39,1.69-0.92,2.33-1.56c0.64-0.64,1.14-1.39,1.5-2.24C914.68,510.95,914.85,510.08,914.85,509.16"
			/>
		<polygon class="st0" points="931.07,476.95 939.23,476.95 939.23,501.25 939.61,501.25 949.82,491.03 959.91,491.03 
			959.91,491.53 948.57,502.56 960.84,521.06 960.84,521.56 951.19,521.56 942.84,508.16 939.23,511.71 939.23,521.56 
			931.07,521.56 		"/>
		<path class="st0" d="M992.05,514.2c-1.41,2.5-3.31,4.51-5.69,6.05c-2.4,1.54-5.31,2.31-8.76,2.31c-2.32,0-4.47-0.41-6.45-1.22
			c-1.97-0.81-3.69-1.94-5.14-3.4c-1.45-1.45-2.59-3.16-3.39-5.14c-0.82-1.97-1.21-4.14-1.21-6.51c0-2.19,0.39-4.28,1.17-6.26
			c0.79-1.97,1.89-3.69,3.3-5.17c1.42-1.48,3.09-2.65,5.03-3.52c1.92-0.87,4.05-1.3,6.37-1.3c2.46,0,4.64,0.4,6.55,1.21
			c1.91,0.81,3.5,1.93,4.78,3.36c1.29,1.44,2.26,3.13,2.93,5.08c0.67,1.95,1,4.07,1,6.35v0.75c-0.04,0.25-0.06,0.48-0.06,0.69
			c-0.05,0.2-0.07,0.43-0.07,0.68h-22.99c0.17,1.25,0.52,2.32,1.04,3.21c0.51,0.89,1.16,1.64,1.93,2.24
			c0.76,0.61,1.61,1.04,2.52,1.31c0.92,0.27,1.85,0.4,2.8,0.4c1.87,0,3.42-0.42,4.64-1.27c1.23-0.85,2.19-1.92,2.9-3.21
			L992.05,514.2z M984.64,502.37c-0.05-0.54-0.22-1.14-0.53-1.81c-0.31-0.67-0.77-1.29-1.37-1.87c-0.61-0.58-1.35-1.05-2.25-1.43
			c-0.89-0.38-1.96-0.56-3.21-0.56c-1.73,0-3.27,0.5-4.6,1.49c-1.33,1-2.27,2.39-2.8,4.18H984.64z"/>
		<path class="st0" d="M997.78,491.03h7.67v4.24h0.5c0.37-0.75,0.87-1.43,1.49-2.06c0.62-0.62,1.32-1.17,2.09-1.63
			c0.76-0.46,1.6-0.84,2.49-1.13c0.89-0.28,1.78-0.42,2.64-0.42c1.08,0,2.01,0.11,2.78,0.34c0.76,0.23,1.42,0.53,1.96,0.9
			l-2.18,7.29c-0.49-0.25-1.04-0.45-1.64-0.59c-0.61-0.15-1.35-0.22-2.21-0.22c-1.13,0-2.15,0.22-3.07,0.66
			c-0.91,0.44-1.69,1.05-2.32,1.85c-0.65,0.79-1.15,1.72-1.51,2.79c-0.34,1.07-0.52,2.23-0.52,3.47v15.03h-8.17V491.03z"/>
		<path class="st0" d="M1033.98,522.55c-2,0-3.77-0.25-5.33-0.75c-1.55-0.5-2.91-1.15-4.05-1.96c-1.14-0.81-2.1-1.74-2.89-2.81
			c-0.79-1.06-1.4-2.13-1.81-3.2l7.3-3.12c0.69,1.58,1.63,2.76,2.83,3.52c1.17,0.77,2.5,1.16,3.95,1.16c1.49,0,2.68-0.27,3.55-0.81
			c0.88-0.55,1.31-1.19,1.31-1.94c0-0.83-0.36-1.51-1.09-2.02c-0.73-0.52-1.99-0.99-3.77-1.4l-4.3-0.94c-0.95-0.2-1.94-0.54-2.96-1
			c-1.02-0.45-1.94-1.04-2.77-1.74c-0.83-0.7-1.52-1.56-2.06-2.55c-0.54-1-0.81-2.16-0.81-3.49c0-1.5,0.33-2.82,0.96-3.99
			c0.65-1.17,1.54-2.15,2.65-2.96c1.12-0.81,2.44-1.43,3.96-1.86c1.51-0.45,3.15-0.66,4.89-0.66c2.91,0,5.5,0.57,7.79,1.71
			c2.28,1.14,3.97,2.96,5.05,5.45l-7.05,2.87c-0.58-1.2-1.42-2.07-2.55-2.62c-1.12-0.54-2.24-0.81-3.36-0.81
			c-1.17,0-2.18,0.23-3.06,0.72c-0.87,0.48-1.3,1.09-1.3,1.84c0,0.7,0.36,1.26,1.08,1.68c0.73,0.42,1.72,0.79,2.97,1.12l4.67,1.12
			c3.11,0.75,5.43,1.94,6.94,3.58c1.52,1.64,2.28,3.59,2.28,5.83c0,1.33-0.31,2.6-0.93,3.8c-0.63,1.2-1.51,2.27-2.66,3.21
			c-1.14,0.93-2.51,1.67-4.11,2.21C1037.71,522.28,1035.93,522.55,1033.98,522.55"/>
		<path class="st0" d="M500.02,547.85h9.59l16.76,44.6h-9.28l-3.68-10.65h-17.19l-3.68,10.65h-9.28L500.02,547.85z M510.67,574.07
			l-3.98-11.15l-1.63-5.42h-0.51l-1.61,5.42l-3.99,11.15H510.67z"/>
		<rect x="530.6" y="547.84" class="st0" width="8.17" height="44.6"/>
		<path class="st0" d="M559.5,606.9c-2.16,0-4.08-0.28-5.76-0.84c-1.68-0.56-3.15-1.29-4.4-2.18c-1.24-0.89-2.28-1.88-3.11-2.96
			c-0.83-1.08-1.43-2.16-1.8-3.24l7.78-3.12c0.58,1.63,1.54,2.88,2.87,3.78c1.32,0.89,2.8,1.33,4.42,1.33
			c2.58,0,4.61-0.83,6.12-2.51c1.48-1.67,2.23-3.97,2.23-6.9v-2.12h-0.5c-0.95,1.32-2.21,2.38-3.77,3.14
			c-1.56,0.77-3.39,1.16-5.5,1.16c-1.83,0-3.61-0.37-5.34-1.11c-1.72-0.74-3.25-1.8-4.57-3.17c-1.33-1.38-2.41-3.04-3.25-4.97
			c-0.83-1.94-1.24-4.09-1.24-6.48s0.42-4.56,1.24-6.51c0.84-1.95,1.91-3.62,3.25-5c1.32-1.38,2.85-2.44,4.57-3.18
			c1.73-0.74,3.5-1.11,5.34-1.11c2.11,0,3.94,0.38,5.5,1.15c1.56,0.77,2.82,1.82,3.77,3.15h0.5v-3.31h7.79v28.35
			c0,2.57-0.4,4.89-1.18,6.94c-0.8,2.06-1.89,3.81-3.31,5.24c-1.41,1.43-3.1,2.53-5.07,3.3C564.1,606.52,561.91,606.9,559.5,606.9
			 M559.81,585.1c1,0,1.98-0.19,2.97-0.55c0.98-0.37,1.84-0.91,2.58-1.62c0.75-0.71,1.35-1.6,1.81-2.63
			c0.45-1.03,0.68-2.23,0.68-3.57c0-1.35-0.23-2.55-0.68-3.61c-0.46-1.06-1.06-1.94-1.81-2.66c-0.74-0.71-1.6-1.26-2.58-1.62
			c-0.98-0.36-1.97-0.55-2.97-0.55c-0.99,0-1.97,0.19-2.93,0.55c-0.95,0.36-1.8,0.92-2.56,1.65c-0.73,0.74-1.34,1.63-1.79,2.66
			c-0.45,1.04-0.69,2.23-0.69,3.58c0,1.35,0.23,2.54,0.69,3.57c0.45,1.04,1.06,1.92,1.79,2.63c0.76,0.71,1.6,1.25,2.56,1.62
			C557.84,584.91,558.82,585.1,559.81,585.1"/>
		<path class="st0" d="M587.17,557.81c-0.71,0-1.38-0.14-2.02-0.4c-0.64-0.27-1.21-0.64-1.69-1.12c-0.48-0.48-0.85-1.04-1.11-1.66
			c-0.28-0.62-0.41-1.3-0.41-2.05s0.13-1.44,0.41-2.06c0.27-0.62,0.64-1.17,1.11-1.65c0.48-0.48,1.04-0.85,1.69-1.12
			c0.64-0.26,1.31-0.41,2.02-0.41c1.45,0,2.7,0.51,3.73,1.53c1.04,1.01,1.56,2.26,1.56,3.71s-0.51,2.69-1.56,3.71
			C589.87,557.3,588.62,557.81,587.17,557.81 M583.12,561.92h8.16v30.53h-8.16V561.92z"/>
		<path class="st0" d="M627.35,585.1c-1.42,2.49-3.32,4.5-5.7,6.04c-2.4,1.54-5.31,2.31-8.76,2.31c-2.32,0-4.47-0.41-6.45-1.22
			c-1.97-0.81-3.69-1.94-5.14-3.4c-1.45-1.45-2.58-3.16-3.39-5.14c-0.81-1.97-1.21-4.14-1.21-6.51c0-2.19,0.39-4.28,1.18-6.26
			c0.78-1.97,1.88-3.69,3.3-5.17c1.41-1.48,3.09-2.65,5.02-3.52c1.92-0.87,4.06-1.3,6.37-1.3c2.46,0,4.64,0.4,6.55,1.21
			c1.91,0.81,3.5,1.93,4.79,3.36c1.29,1.44,2.26,3.13,2.93,5.08c0.67,1.95,1,4.07,1,6.35v0.75c-0.05,0.25-0.07,0.48-0.07,0.69
			c-0.05,0.2-0.07,0.43-0.07,0.68h-22.99c0.17,1.25,0.52,2.32,1.04,3.21s1.16,1.64,1.93,2.24c0.76,0.61,1.61,1.04,2.52,1.31
			c0.92,0.27,1.85,0.4,2.81,0.4c1.86,0,3.41-0.42,4.63-1.27c1.23-0.85,2.19-1.91,2.91-3.21L627.35,585.1z M619.94,573.26
			c-0.05-0.54-0.23-1.14-0.53-1.81c-0.31-0.67-0.77-1.29-1.38-1.87c-0.61-0.58-1.35-1.05-2.24-1.43s-1.97-0.56-3.22-0.56
			c-1.73,0-3.27,0.5-4.6,1.49c-1.32,1-2.26,2.39-2.8,4.18H619.94z"/>
		<path class="st0" d="M633.08,561.92h7.67v4.24h0.49c0.37-0.75,0.87-1.43,1.49-2.06c0.63-0.62,1.32-1.17,2.1-1.63
			c0.76-0.46,1.6-0.84,2.48-1.12c0.9-0.29,1.78-0.42,2.65-0.42c1.08,0,2.01,0.11,2.78,0.34c0.76,0.23,1.42,0.53,1.95,0.9l-2.17,7.29
			c-0.5-0.25-1.05-0.45-1.65-0.59c-0.6-0.15-1.35-0.22-2.21-0.22c-1.13,0-2.14,0.22-3.06,0.66c-0.92,0.44-1.69,1.05-2.33,1.85
			c-0.65,0.79-1.15,1.73-1.51,2.79c-0.34,1.07-0.52,2.23-0.52,3.47v15.03h-8.16V561.92z"/>
		<path class="st0" d="M669.27,593.45c-2,0-3.77-0.25-5.32-0.75c-1.56-0.5-2.91-1.15-4.05-1.96c-1.15-0.81-2.11-1.74-2.9-2.81
			c-0.79-1.06-1.4-2.13-1.8-3.2l7.29-3.12c0.7,1.58,1.63,2.76,2.83,3.52c1.18,0.77,2.5,1.16,3.95,1.16c1.49,0,2.68-0.27,3.55-0.81
			c0.88-0.55,1.31-1.18,1.31-1.94c0-0.83-0.36-1.51-1.09-2.02c-0.73-0.52-1.99-0.99-3.77-1.4l-4.3-0.94
			c-0.95-0.2-1.94-0.54-2.96-0.99c-1.02-0.46-1.94-1.04-2.77-1.75c-0.83-0.7-1.51-1.56-2.06-2.55c-0.54-1-0.81-2.16-0.81-3.49
			c0-1.5,0.33-2.82,0.97-3.99c0.64-1.17,1.53-2.15,2.64-2.96c1.13-0.81,2.45-1.43,3.97-1.86c1.51-0.45,3.14-0.66,4.88-0.66
			c2.91,0,5.51,0.57,7.8,1.71c2.27,1.14,3.96,2.96,5.04,5.45l-7.04,2.87c-0.58-1.2-1.43-2.07-2.56-2.62
			c-1.11-0.54-2.24-0.81-3.36-0.81c-1.17,0-2.18,0.24-3.06,0.72c-0.87,0.48-1.3,1.09-1.3,1.84c0,0.7,0.36,1.26,1.08,1.68
			c0.73,0.42,1.72,0.79,2.97,1.12l4.67,1.12c3.11,0.75,5.43,1.95,6.95,3.58c1.51,1.64,2.27,3.59,2.27,5.83c0,1.33-0.31,2.6-0.93,3.8
			c-0.63,1.2-1.51,2.27-2.65,3.21c-1.14,0.94-2.51,1.67-4.12,2.21C672.99,593.17,671.22,593.45,669.27,593.45"/>
	</g>
</g>
</svg>
